<?xml version="1.0" standalone="no"?>
<!DOCTYPE svg PUBLIC "-//W3C//DTD SVG 20010904//EN"
 "http://www.w3.org/TR/2001/REC-SVG-20010904/DTD/svg10.dtd">
<svg version="1.0" xmlns="http://www.w3.org/2000/svg"
 width="2000.000000pt" height="2000.000000pt" viewBox="0 0 2000.000000 2000.000000"
 preserveAspectRatio="xMidYMid meet">
<metadata>
Created by potrace 1.14, written by Peter Selinger 2001-2017
</metadata>
<g transform="translate(0.000000,2000.000000) scale(0.100000,-0.100000)"
fill="#000000" stroke="none">
<path d="M8217 15794 c-1 -1 -67 -4 -147 -8 -196 -8 -305 -18 -455 -42 -49 -7
-106 -16 -125 -18 -186 -24 -744 -177 -897 -247 -24 -10 -47 -19 -52 -19 -37
0 -560 -244 -736 -343 -33 -19 -82 -47 -110 -62 -216 -121 -447 -277 -770
-517 -29 -22 -131 -103 -135 -108 -3 -3 -25 -21 -50 -40 -302 -234 -775 -697
-1055 -1033 -22 -27 -50 -60 -63 -75 -110 -129 -351 -470 -467 -662 -54 -89
-195 -339 -195 -346 0 -2 -26 -58 -59 -126 -32 -68 -78 -170 -101 -228 -23
-58 -51 -127 -62 -155 -11 -27 -21 -54 -23 -60 -1 -5 -5 -17 -8 -25 -19 -51
-89 -288 -102 -348 -2 -9 -13 -58 -24 -108 -21 -93 -46 -241 -56 -329 -3 -27
-8 -61 -11 -75 -3 -14 -7 -133 -8 -265 -3 -218 5 -351 28 -485 4 -19 9 -51 13
-70 3 -19 7 -42 8 -50 15 -82 73 -269 115 -370 110 -266 304 -524 469 -625 68
-41 181 -82 256 -93 67 -9 294 -9 375 1 185 24 545 134 785 242 68 30 186 85
251 116 98 47 426 222 449 239 6 4 33 20 60 35 54 30 325 196 415 254 30 20
62 40 71 46 92 58 143 92 153 100 6 6 61 44 121 85 61 40 135 92 167 115 31
22 66 47 78 55 20 14 284 206 339 247 167 126 550 425 611 479 14 12 79 67
145 121 102 84 371 317 494 428 222 199 806 785 1006 1009 6 6 53 58 105 116
138 154 215 241 241 274 13 16 34 41 47 55 28 30 220 264 272 331 19 25 37 47
41 50 31 25 342 459 441 615 32 49 62 95 68 102 5 7 10 15 10 17 0 3 19 36 41
73 111 181 226 439 270 605 33 121 33 301 1 379 -31 79 -85 135 -199 212 -229
154 -549 294 -869 382 -119 33 -359 84 -464 100 -86 12 -95 13 -160 20 -36 4
-74 9 -85 11 -30 6 -453 22 -458 18z"/>
<path d="M10925 14252 c-82 -39 -192 -142 -321 -302 -38 -47 -71 -87 -74 -90
-9 -9 -67 -85 -322 -425 -141 -187 -288 -383 -328 -435 -73 -96 -432 -545
-488 -610 -17 -19 -76 -89 -132 -155 -57 -66 -129 -150 -162 -187 -33 -37 -68
-77 -78 -88 -16 -18 -119 -132 -195 -215 -231 -251 -632 -653 -920 -921 -389
-362 -844 -717 -1295 -1010 -158 -103 -455 -284 -466 -284 -3 0 -18 -8 -32
-18 -15 -11 -61 -37 -102 -59 -41 -22 -93 -51 -115 -63 -94 -53 -696 -350
-710 -350 -2 0 -41 -17 -87 -39 -45 -21 -135 -61 -198 -89 -63 -27 -150 -66
-193 -86 -43 -20 -81 -36 -83 -36 -21 0 -374 -184 -444 -231 -258 -174 -261
-328 -11 -576 223 -222 553 -393 946 -491 135 -34 261 -58 349 -68 33 -3 67
-7 76 -9 37 -7 262 -18 370 -18 145 0 331 10 435 23 44 6 98 13 120 16 22 2
63 9 90 14 28 5 64 11 80 14 83 12 380 82 480 113 150 46 382 126 440 152 11
5 76 32 145 61 393 163 859 433 1270 734 87 63 344 266 414 326 365 312 723
675 976 989 19 24 40 48 45 55 6 6 56 72 112 146 347 465 620 975 780 1460 30
92 97 329 109 385 19 96 36 179 39 198 14 78 28 168 31 202 2 22 6 54 9 70 24
151 24 621 0 785 -2 14 -6 48 -9 75 -4 28 -11 73 -16 100 -5 28 -11 66 -14 86
-10 68 -77 314 -113 408 -75 204 -171 376 -237 426 -48 37 -115 43 -171 17z"/>
<path d="M11746 12602 c-2 -4 -7 -66 -11 -137 -3 -72 -7 -146 -10 -165 -2 -19
-7 -60 -10 -90 -5 -50 -16 -121 -30 -197 -3 -16 -8 -44 -11 -63 -17 -108 -84
-359 -146 -545 -47 -144 -172 -459 -190 -479 -23 -27 -3 -44 140 -114 81 -39
210 -106 287 -147 77 -41 154 -81 170 -89 93 -46 499 -286 503 -298 2 -4 8 -8
13 -8 25 0 515 -333 709 -482 41 -32 80 -61 85 -65 29 -23 153 -120 170 -134
219 -180 389 -328 534 -464 176 -165 612 -596 708 -701 15 -17 76 -82 134
-145 58 -63 118 -127 133 -144 15 -16 39 -43 55 -60 88 -97 411 -476 520 -610
26 -33 135 -169 143 -180 4 -5 30 -37 56 -70 55 -68 325 -423 452 -595 47 -63
88 -119 93 -125 26 -34 94 -126 107 -145 8 -12 20 -28 25 -34 6 -6 45 -56 87
-112 42 -56 83 -107 90 -115 7 -8 26 -32 43 -54 34 -45 34 -46 137 -151 95
-97 93 -96 160 -133 144 -82 240 -23 354 214 122 255 209 600 241 945 10 112
10 521 0 635 -4 50 -15 137 -23 195 -13 99 -17 120 -29 180 -2 14 -7 39 -10
56 -27 166 -155 601 -220 749 -8 17 -30 69 -49 117 -40 97 -154 334 -217 448
-83 151 -277 461 -341 545 -5 6 -45 60 -90 120 -197 266 -393 489 -663 760
-219 219 -281 275 -514 470 -573 479 -1160 840 -1758 1081 -229 92 -585 205
-750 239 -10 2 -65 13 -123 24 -58 12 -121 24 -140 26 -19 3 -44 7 -55 9 -19
4 -139 19 -250 31 -84 10 -504 15 -509 7z"/>
<path d="M11153 10553 c-3 -10 -14 -29 -23 -43 -10 -14 -32 -52 -50 -85 -135
-247 -433 -663 -690 -964 -142 -167 -219 -250 -405 -436 -175 -175 -256 -252
-360 -342 -33 -28 -71 -62 -85 -74 -14 -12 -56 -47 -95 -78 -38 -31 -76 -62
-84 -70 -8 -7 -49 -39 -90 -70 -42 -31 -78 -58 -81 -61 -8 -9 -207 -151 -300
-215 -47 -32 -86 -59 -88 -61 -2 -1 1 -10 7 -21 19 -35 41 -86 41 -95 0 -14
148 -309 205 -408 205 -361 473 -726 788 -1075 103 -115 457 -469 562 -562
128 -115 134 -120 255 -222 237 -200 457 -366 705 -529 77 -51 145 -97 152
-102 7 -6 14 -10 17 -10 3 0 47 -25 98 -56 181 -110 427 -238 633 -328 72 -32
139 -62 150 -66 122 -55 507 -185 635 -215 8 -2 51 -12 95 -23 177 -45 415
-88 590 -107 112 -12 140 -14 250 -20 201 -12 496 -7 660 11 88 9 221 26 245
30 14 2 41 7 60 10 63 9 303 63 395 89 50 14 97 27 105 29 103 27 352 127 500
201 227 112 385 220 438 297 135 198 58 566 -218 1043 -35 61 -70 122 -77 136
-7 15 -20 32 -28 39 -8 7 -15 17 -15 22 0 28 -457 663 -538 746 -7 8 -25 30
-40 50 -15 21 -29 39 -32 42 -3 3 -60 70 -127 150 -66 80 -129 154 -139 165
-11 11 -55 61 -98 110 -315 359 -884 934 -1162 1175 -453 393 -866 729 -1229
1000 -55 41 -102 77 -105 81 -7 7 -302 220 -445 320 -217 152 -624 418 -749
489 -17 9 -70 40 -118 69 -48 28 -92 51 -98 51 -6 0 -13 -8 -17 -17z"/>
</g>
</svg>
