<?xml version="1.0" standalone="no"?>
<!DOCTYPE svg PUBLIC "-//W3C//DTD SVG 20010904//EN"
 "http://www.w3.org/TR/2001/REC-SVG-20010904/DTD/svg10.dtd">
<svg version="1.0" xmlns="http://www.w3.org/2000/svg"
 width="2048.000000pt" height="2048.000000pt" viewBox="0 0 2048.000000 2048.000000"
 preserveAspectRatio="xMidYMid meet">
<metadata>
Created by potrace 1.14, written by Peter Selinger 2001-2017
</metadata>
<g transform="translate(0.000000,2048.000000) scale(0.100000,-0.100000)"
fill="#000000" stroke="none">
<path d="M8309 15976 c-2 -2 -51 -7 -109 -10 -58 -3 -115 -8 -127 -10 -12 -3
-50 -7 -85 -10 -35 -4 -72 -8 -83 -10 -11 -2 -56 -9 -100 -16 -44 -7 -89 -14
-100 -16 -11 -2 -33 -7 -48 -9 -16 -3 -66 -14 -111 -25 -45 -10 -93 -21 -106
-24 -171 -32 -617 -183 -835 -281 -33 -14 -76 -33 -95 -42 -84 -37 -254 -121
-365 -181 -167 -90 -489 -284 -531 -320 -5 -5 -21 -15 -34 -22 -13 -7 -29 -17
-34 -22 -6 -5 -72 -52 -146 -105 -109 -77 -460 -350 -480 -372 -3 -3 -23 -22
-46 -41 -195 -168 -296 -263 -474 -441 -407 -407 -731 -822 -994 -1272 -102
-174 -267 -507 -291 -587 -4 -14 -11 -29 -15 -35 -24 -30 -142 -389 -181 -550
-11 -44 -24 -98 -30 -120 -12 -48 -16 -70 -29 -155 -6 -36 -13 -76 -15 -90 -5
-29 -13 -94 -24 -205 -9 -83 -7 -498 2 -550 3 -16 9 -55 12 -85 4 -30 8 -62
10 -70 2 -8 6 -33 10 -55 21 -138 91 -356 161 -505 41 -86 119 -222 151 -260
7 -8 26 -33 43 -55 90 -116 207 -214 308 -259 130 -57 346 -80 522 -55 36 5
76 11 90 13 42 6 173 36 206 47 17 5 40 11 50 14 56 12 309 102 381 135 24 11
45 20 48 20 18 0 434 203 567 278 59 33 113 62 120 66 7 4 22 12 33 19 11 7
47 27 80 46 175 101 831 523 855 551 3 3 59 43 125 90 372 260 1118 848 1339
1055 6 5 29 25 51 44 40 34 161 143 285 256 188 172 786 782 971 990 24 28 47
52 50 55 10 9 163 183 219 250 30 36 60 71 67 78 7 7 29 34 50 60 21 26 43 52
48 58 10 11 28 32 133 163 76 94 70 86 153 196 237 312 448 634 553 845 15 30
31 62 36 70 18 29 63 136 95 225 60 166 83 325 63 438 -14 73 -60 159 -110
202 -166 142 -522 320 -838 419 -116 36 -289 82 -345 92 -16 2 -37 7 -45 9 -8
2 -28 6 -45 9 -41 7 -85 15 -115 21 -13 2 -42 7 -65 10 -22 3 -56 7 -75 10
-19 3 -60 7 -90 10 -30 4 -75 8 -100 11 -57 6 -566 15 -571 10z"/>
<path d="M11180 14461 c-14 -5 -40 -16 -59 -25 -43 -23 -201 -180 -282 -281
-35 -44 -66 -82 -69 -85 -3 -3 -19 -23 -35 -45 -16 -22 -35 -47 -42 -55 -7 -8
-26 -33 -43 -55 -16 -22 -40 -53 -53 -69 -12 -16 -35 -48 -52 -72 -110 -158
-756 -992 -816 -1054 -7 -8 -26 -31 -41 -50 -15 -19 -37 -47 -50 -62 -13 -14
-32 -37 -43 -50 -98 -116 -130 -154 -134 -158 -3 -3 -33 -36 -66 -75 -383
-445 -1087 -1157 -1440 -1456 -22 -19 -44 -39 -50 -45 -5 -6 -50 -45 -100 -85
-49 -41 -99 -82 -110 -91 -344 -291 -994 -727 -1445 -970 -36 -20 -92 -50
-125 -68 -72 -39 -452 -230 -458 -230 -2 0 -60 -26 -128 -59 -68 -32 -178 -82
-244 -111 -66 -29 -142 -63 -170 -77 -27 -14 -51 -24 -52 -24 -7 1 -123 -51
-321 -145 -437 -208 -545 -349 -426 -556 51 -89 224 -256 353 -342 96 -65 241
-143 356 -193 85 -37 326 -115 399 -129 11 -2 63 -12 115 -23 53 -11 123 -23
156 -27 33 -3 69 -8 80 -10 126 -25 688 -25 835 0 14 3 48 7 75 11 52 6 212
31 255 40 14 2 36 7 50 10 14 3 36 8 50 11 14 3 36 7 50 10 14 3 43 10 65 16
22 5 51 12 64 15 14 2 28 6 33 9 4 3 17 7 28 9 64 12 343 104 486 159 204 79
468 200 639 294 143 78 280 156 285 162 3 3 28 19 55 35 44 25 294 187 320
208 6 4 73 53 150 109 77 56 142 105 145 108 3 3 25 21 50 40 25 19 50 39 56
45 7 5 31 26 55 45 66 53 249 209 289 246 321 297 531 517 755 788 22 27 45
54 50 60 38 40 335 450 335 461 0 3 15 27 33 53 75 108 207 342 297 527 77
160 119 255 161 370 16 44 33 89 38 100 35 75 149 484 165 588 3 21 13 71 21
110 8 40 17 99 21 132 3 33 7 62 9 65 10 17 20 237 20 450 0 244 -6 356 -26
480 -6 36 -12 74 -14 85 -4 23 -15 90 -20 114 -25 132 -100 367 -158 496 -121
271 -206 353 -327 316z"/>
<path d="M11999 12822 l-37 -3 -2 -87 c-1 -87 -3 -119 -15 -242 -7 -72 -10
-96 -19 -155 -18 -114 -39 -226 -52 -280 -8 -33 -17 -68 -19 -77 -46 -199
-154 -513 -263 -765 l-40 -92 196 -98 c180 -89 425 -218 462 -243 8 -5 29 -16
45 -24 17 -8 53 -29 80 -45 28 -17 68 -40 89 -52 156 -85 661 -414 801 -521 6
-5 71 -54 145 -110 161 -120 500 -394 530 -427 3 -4 38 -35 79 -71 87 -75 68
-58 291 -270 308 -293 644 -638 891 -915 24 -27 49 -55 54 -61 6 -6 35 -39 65
-75 30 -35 73 -84 96 -109 33 -37 138 -161 233 -275 156 -189 639 -812 766
-989 48 -68 342 -456 379 -501 182 -222 312 -330 410 -339 87 -9 170 70 252
240 30 62 54 118 54 126 0 8 4 18 9 24 14 14 83 239 107 349 17 77 44 224 50
272 3 32 8 60 9 63 10 17 20 227 20 425 0 200 -4 279 -20 420 -2 17 -6 53 -9
80 -4 41 -35 212 -62 345 -3 14 -20 84 -39 155 -147 563 -434 1143 -827 1673
-55 74 -104 140 -109 146 -5 6 -25 31 -45 56 -34 42 -79 98 -114 139 -187 223
-524 565 -749 761 -35 30 -82 71 -105 91 -82 73 -274 225 -411 326 -77 56
-145 107 -150 111 -45 36 -507 332 -519 332 -2 0 -41 22 -87 48 -542 312
-1262 557 -1814 618 -33 3 -68 8 -78 10 -62 11 -443 23 -528 16z"/>
<path d="M11383 10788 c-42 -92 -406 -658 -442 -688 -3 -3 -45 -57 -93 -120
-47 -63 -95 -124 -105 -135 -10 -11 -36 -43 -58 -70 -200 -251 -660 -716 -909
-920 -27 -22 -63 -52 -80 -66 -61 -53 -143 -117 -261 -205 -127 -94 -153 -113
-294 -210 l-89 -61 38 -91 c48 -114 161 -338 230 -457 29 -49 58 -99 64 -110
69 -121 346 -516 426 -605 12 -14 34 -41 49 -60 28 -37 33 -43 167 -195 562
-638 1305 -1246 1984 -1624 104 -59 455 -230 561 -274 139 -59 374 -147 392
-147 7 0 17 -3 21 -8 4 -4 11 -7 14 -7 4 -1 52 -15 107 -32 99 -31 315 -88
367 -97 15 -2 63 -12 105 -20 43 -9 89 -17 103 -20 14 -2 41 -7 60 -10 19 -4
49 -8 65 -10 75 -9 152 -18 175 -22 155 -24 782 -25 915 0 11 2 47 7 80 10 72
9 242 39 345 61 41 9 86 18 100 21 30 6 225 61 260 74 14 5 72 25 130 46 58
20 109 41 115 45 5 5 15 9 22 9 20 0 234 104 342 166 267 155 335 239 345 430
9 165 -53 373 -196 658 -76 152 -183 330 -316 526 -94 139 -303 425 -371 507
-14 17 -39 48 -56 69 -41 53 -266 322 -290 348 -6 6 -37 42 -70 81 -33 38 -67
76 -75 85 -8 9 -49 54 -90 100 -41 46 -109 119 -150 163 -41 44 -88 94 -104
111 -63 68 -312 319 -438 441 -236 230 -319 305 -578 525 -74 63 -137 117
-140 121 -4 4 -341 279 -400 326 -8 7 -62 50 -120 96 -151 120 -423 326 -580
440 -74 54 -142 103 -150 110 -65 50 -575 397 -585 397 -3 0 -11 5 -18 10 -34
29 -497 310 -511 310 -1 0 -7 -10 -13 -22z"/>
</g>
</svg>
