<svg id="svg" version="1.1" xmlns="http://www.w3.org/2000/svg" xmlns:xlink="http://www.w3.org/1999/xlink" width="400" height="137.93103448275863" viewBox="0, 0, 400,137.93103448275863">
	<style>
		path {
			fill: #432D27;
		}
		@media (prefers-color-scheme: dark) {
		path {
			fill: #000000;
			}
		}
	</style>
	<g id="svgg">
		<path id="path0" d="M61.219 20.819 C 60.743 20.877,60.294 20.983,60.222 21.056 C 60.149 21.129,60.501 21.127,61.003 21.053 C 61.506 20.978,63.428 20.917,65.276 20.917 C 67.124 20.917,68.549 20.862,68.443 20.794 C 68.213 20.648,62.458 20.668,61.219 20.819 M68.912 20.841 C 68.858 20.928,69.024 21.011,69.282 21.025 C 69.539 21.039,69.900 21.059,70.083 21.069 C 70.267 21.079,70.505 21.144,70.613 21.213 C 70.722 21.282,70.857 21.263,70.915 21.169 C 71.043 20.962,71.073 20.972,70.196 20.910 C 69.800 20.882,69.371 20.819,69.243 20.770 C 69.115 20.721,68.966 20.753,68.912 20.841 M58.667 21.177 C 58.667 21.274,58.598 21.311,58.515 21.259 C 58.317 21.137,56.667 21.518,56.667 21.687 C 56.667 21.758,56.873 21.745,57.125 21.659 C 57.377 21.572,57.812 21.478,58.091 21.448 C 58.370 21.419,58.689 21.339,58.799 21.271 C 58.910 21.203,59.075 21.193,59.167 21.250 C 59.258 21.307,59.333 21.274,59.333 21.177 C 59.333 21.079,59.183 21.000,59.000 21.000 C 58.817 21.000,58.667 21.079,58.667 21.177 M71.167 21.183 C 71.167 21.296,71.216 21.340,71.276 21.279 C 71.337 21.219,71.487 21.253,71.610 21.355 C 71.733 21.457,71.833 21.502,71.833 21.455 C 71.833 21.367,72.609 21.516,73.292 21.735 C 73.498 21.802,73.667 21.788,73.667 21.704 C 73.667 21.621,73.235 21.461,72.708 21.348 C 72.181 21.235,71.619 21.106,71.458 21.060 C 71.293 21.013,71.167 21.067,71.167 21.183 M53.917 22.244 C 51.928 22.844,51.167 23.149,51.167 23.347 C 51.167 23.417,51.373 23.373,51.625 23.250 C 51.877 23.126,52.946 22.785,54.000 22.492 C 55.054 22.199,56.067 21.898,56.250 21.824 C 57.161 21.456,55.594 21.738,53.917 22.244 M73.917 21.812 C 74.008 21.904,74.272 22.014,74.502 22.055 C 74.732 22.096,75.329 22.252,75.828 22.400 C 76.328 22.548,76.664 22.603,76.576 22.522 C 76.251 22.222,73.630 21.522,73.917 21.812 M76.833 22.655 C 76.833 22.741,76.983 22.853,77.167 22.905 C 78.116 23.175,78.222 23.162,77.667 22.846 C 77.008 22.471,76.833 22.431,76.833 22.655 M78.334 23.282 C 78.334 23.356,78.691 23.562,79.126 23.739 C 80.020 24.104,81.521 24.978,81.706 25.242 C 81.773 25.338,81.829 25.364,81.831 25.300 C 81.835 25.103,82.951 26.226,83.162 26.640 C 83.355 27.017,83.500 27.608,83.548 28.208 C 83.560 28.369,83.627 28.500,83.695 28.500 C 83.764 28.500,83.804 28.275,83.785 28.000 C 83.766 27.726,83.689 27.501,83.615 27.500 C 83.541 27.500,83.523 27.431,83.575 27.347 C 83.852 26.898,82.636 25.362,81.585 24.833 C 81.312 24.696,80.953 24.471,80.789 24.333 C 80.624 24.196,80.462 24.121,80.429 24.167 C 80.396 24.212,80.217 24.113,80.032 23.946 C 79.847 23.778,79.596 23.621,79.473 23.596 C 79.249 23.550,78.692 23.341,78.458 23.214 C 78.390 23.177,78.334 23.208,78.334 23.282 M49.763 23.718 C 49.219 23.919,48.747 24.170,48.712 24.277 C 48.651 24.465,50.048 23.961,50.750 23.542 C 51.254 23.242,50.863 23.311,49.763 23.718 M47.583 24.658 C 47.125 24.903,46.563 25.208,46.333 25.337 C 46.104 25.466,45.860 25.555,45.792 25.535 C 45.723 25.516,45.667 25.581,45.667 25.681 C 45.667 25.780,45.723 25.834,45.792 25.801 C 45.860 25.769,46.455 25.492,47.114 25.187 C 47.772 24.882,48.351 24.527,48.400 24.399 C 48.449 24.271,48.473 24.177,48.453 24.190 C 48.433 24.203,48.042 24.414,47.583 24.658 M44.708 26.186 C 44.410 26.377,44.167 26.565,44.167 26.604 C 44.167 26.643,44.410 26.545,44.708 26.387 C 45.006 26.228,45.306 26.114,45.375 26.132 C 45.444 26.151,45.500 26.092,45.500 26.000 C 45.500 25.755,45.313 25.798,44.708 26.186 M43.292 26.974 C 42.796 27.273,42.645 27.615,43.125 27.351 C 43.606 27.087,44.095 26.677,43.917 26.687 C 43.825 26.693,43.544 26.822,43.292 26.974 M42.039 27.743 C 41.762 27.976,41.481 28.167,41.416 28.167 C 41.350 28.167,40.814 28.504,40.224 28.917 C 39.633 29.329,39.118 29.667,39.077 29.667 C 38.993 29.667,38.422 30.119,37.981 30.536 C 37.814 30.693,37.394 31.006,37.047 31.230 C 36.262 31.738,35.448 32.504,35.568 32.624 C 35.617 32.673,35.939 32.440,36.282 32.107 C 36.626 31.773,36.963 31.500,37.031 31.500 C 37.099 31.500,37.383 31.278,37.661 31.006 C 37.939 30.734,38.167 30.559,38.167 30.618 C 38.167 30.677,38.335 30.574,38.542 30.390 C 38.748 30.205,39.742 29.508,40.750 28.840 C 42.862 27.441,42.749 27.527,42.632 27.410 C 42.582 27.360,42.315 27.510,42.039 27.743 M83.611 28.778 C 83.550 28.839,83.500 29.039,83.500 29.222 C 83.500 29.631,83.652 29.507,83.746 29.023 C 83.818 28.646,83.791 28.597,83.611 28.778 M83.386 29.958 C 83.329 30.119,83.252 30.306,83.214 30.375 C 83.177 30.444,83.218 30.500,83.304 30.500 C 83.390 30.500,83.497 30.313,83.541 30.083 C 83.632 29.604,83.539 29.528,83.386 29.958 M82.916 31.168 C 82.801 31.694,82.543 32.300,81.961 33.417 C 81.769 33.783,81.497 34.327,81.355 34.625 C 81.213 34.923,81.038 35.167,80.965 35.167 C 80.893 35.167,80.833 35.235,80.833 35.319 C 80.833 35.459,79.866 37.031,79.543 37.417 C 79.466 37.508,79.148 37.958,78.836 38.417 C 78.130 39.455,75.851 42.446,74.841 43.661 C 74.424 44.162,73.933 44.757,73.750 44.983 C 73.567 45.209,73.229 45.597,73.000 45.845 C 72.771 46.094,72.021 46.922,71.333 47.687 C 70.646 48.452,69.858 49.312,69.583 49.600 C 69.308 49.887,68.787 50.432,68.425 50.811 C 68.062 51.190,67.818 51.500,67.883 51.500 C 68.164 51.500,72.266 47.129,74.000 44.982 C 74.229 44.698,74.627 44.230,74.883 43.941 C 75.385 43.377,77.092 41.202,77.497 40.611 C 77.633 40.412,77.839 40.190,77.955 40.117 C 78.072 40.043,78.167 39.875,78.167 39.742 C 78.167 39.609,78.223 39.499,78.292 39.499 C 78.483 39.497,81.235 35.311,81.629 34.422 C 81.749 34.150,81.911 33.888,81.988 33.839 C 82.315 33.633,83.418 30.667,83.168 30.667 C 83.090 30.667,82.977 30.892,82.916 31.168 M34.833 33.016 C 33.379 34.198,29.691 37.752,28.417 39.201 C 28.142 39.513,27.598 40.117,27.208 40.542 C 26.819 40.966,26.500 41.393,26.500 41.490 C 26.500 41.587,26.433 41.667,26.351 41.667 C 26.269 41.667,26.152 41.798,26.091 41.958 C 26.029 42.120,26.244 41.994,26.573 41.676 C 26.900 41.360,27.167 41.041,27.167 40.966 C 27.167 40.664,31.669 36.065,33.742 34.250 C 35.062 33.095,35.333 32.837,35.333 32.738 C 35.333 32.625,35.276 32.657,34.833 33.016 M86.995 33.612 C 86.294 34.087,84.500 35.897,84.500 36.131 C 84.500 36.253,84.425 36.307,84.333 36.250 C 84.242 36.193,84.167 36.260,84.167 36.399 C 84.167 36.537,84.036 36.723,83.876 36.813 C 83.717 36.902,83.648 37.037,83.724 37.112 C 83.800 37.188,84.008 37.063,84.186 36.833 C 87.112 33.073,88.376 32.613,89.542 34.888 C 89.738 35.270,89.978 35.638,90.074 35.706 C 90.171 35.773,90.189 35.829,90.116 35.831 C 90.042 35.832,90.098 36.000,90.241 36.204 C 90.383 36.407,90.500 36.707,90.500 36.870 C 90.500 37.033,90.567 37.167,90.648 37.167 C 90.730 37.167,90.786 37.260,90.774 37.375 C 90.744 37.650,91.513 39.875,91.606 39.783 C 91.646 39.743,91.553 39.345,91.401 38.897 C 91.249 38.450,91.103 37.971,91.075 37.833 C 91.048 37.696,91.010 37.565,90.992 37.542 C 90.973 37.519,90.942 37.444,90.923 37.375 C 90.841 37.083,90.631 36.563,90.488 36.294 C 90.403 36.135,90.333 35.923,90.333 35.824 C 90.333 35.725,90.105 35.311,89.825 34.905 C 89.546 34.499,89.364 34.167,89.421 34.167 C 89.479 34.167,89.303 33.979,89.030 33.750 C 88.446 33.259,87.603 33.201,86.995 33.612 M83.333 37.494 C 83.333 37.582,83.169 37.807,82.969 37.994 C 82.768 38.180,82.681 38.333,82.776 38.333 C 82.947 38.333,83.342 37.939,83.568 37.542 C 83.633 37.427,83.607 37.333,83.510 37.333 C 83.413 37.333,83.333 37.405,83.333 37.494 M82.000 39.273 C 81.679 39.692,81.323 40.134,81.208 40.255 C 81.094 40.377,81.000 40.524,81.000 40.583 C 81.000 40.717,79.629 42.396,79.458 42.472 C 79.390 42.503,79.333 42.623,79.333 42.740 C 79.333 42.857,79.050 43.282,78.703 43.685 C 78.357 44.087,77.963 44.579,77.828 44.777 C 77.694 44.975,77.333 45.444,77.028 45.819 C 76.722 46.193,76.543 46.500,76.629 46.500 C 76.715 46.500,77.333 45.781,78.002 44.903 C 78.671 44.024,79.302 43.218,79.404 43.111 C 79.506 43.004,79.878 42.510,80.232 42.012 C 80.585 41.515,80.942 41.028,81.024 40.929 C 81.837 39.954,82.000 39.722,82.000 39.542 C 82.000 39.427,82.066 39.333,82.147 39.333 C 82.229 39.333,82.418 39.146,82.568 38.917 C 83.032 38.209,82.616 38.470,82.000 39.273 M91.559 40.417 C 91.603 40.692,91.652 40.917,91.667 40.917 C 91.681 40.917,91.713 41.104,91.737 41.333 C 91.761 41.563,91.875 42.513,91.990 43.446 C 92.105 44.379,92.173 45.560,92.141 46.071 C 92.109 46.582,92.140 47.000,92.208 47.000 C 92.385 47.000,92.354 44.653,92.158 43.167 C 92.068 42.479,91.957 41.545,91.912 41.090 C 91.867 40.636,91.752 40.186,91.655 40.090 C 91.532 39.969,91.503 40.067,91.559 40.417 M24.592 43.859 C 23.455 45.449,23.102 46.195,24.042 45.022 C 24.644 44.271,25.678 42.883,25.883 42.550 C 25.958 42.428,25.944 42.333,25.850 42.333 C 25.758 42.333,25.192 43.020,24.592 43.859 M193.844 44.827 C 193.738 44.892,194.006 44.959,194.440 44.975 C 194.873 44.992,195.178 44.955,195.117 44.895 C 194.957 44.735,194.069 44.688,193.844 44.827 M195.532 44.810 C 195.387 44.902,195.486 44.954,195.826 44.963 C 196.108 44.971,196.296 44.908,196.243 44.822 C 196.125 44.631,195.822 44.626,195.532 44.810 M243.468 44.858 C 243.256 44.918,243.815 44.974,244.708 44.983 C 245.602 44.993,246.333 44.944,246.333 44.875 C 246.333 44.722,244.001 44.708,243.468 44.858 M247.500 44.876 C 247.500 44.965,247.639 45.002,247.810 44.958 C 247.980 44.913,248.227 44.937,248.359 45.011 C 248.491 45.085,248.708 45.076,248.841 44.992 C 249.028 44.873,248.989 44.833,248.667 44.815 C 248.438 44.802,248.081 44.773,247.875 44.751 C 247.669 44.730,247.500 44.786,247.500 44.876 M376.728 44.869 C 376.683 44.941,376.839 45.000,377.073 45.000 C 377.308 45.000,377.500 44.941,377.500 44.869 C 377.500 44.797,377.344 44.738,377.154 44.738 C 376.964 44.738,376.772 44.797,376.728 44.869 M191.024 44.982 C 190.626 45.234,191.061 45.286,191.750 45.069 L 192.417 44.859 191.833 44.849 C 191.512 44.843,191.148 44.903,191.024 44.982 M197.555 44.954 C 197.697 45.184,198.484 45.327,198.597 45.144 C 198.646 45.065,198.588 44.999,198.468 44.998 C 198.348 44.996,198.070 44.947,197.849 44.888 C 197.591 44.819,197.486 44.843,197.555 44.954 M240.583 45.308 C 239.667 45.555,238.574 45.925,238.156 46.129 C 237.737 46.333,237.273 46.500,237.124 46.500 C 236.975 46.500,236.809 46.570,236.756 46.656 C 236.703 46.742,236.230 47.056,235.705 47.354 C 235.180 47.651,234.713 47.941,234.667 47.997 C 234.621 48.053,234.321 48.281,234.000 48.504 C 233.104 49.124,231.052 51.335,230.850 51.898 C 230.813 52.000,230.738 52.121,230.683 52.167 C 230.218 52.554,229.228 55.483,229.061 56.965 C 229.002 57.488,229.015 57.859,229.090 57.790 C 229.165 57.720,229.255 57.345,229.289 56.956 C 229.497 54.606,230.612 52.246,232.500 50.159 C 233.508 49.044,235.253 47.667,235.658 47.667 C 235.754 47.667,235.833 47.601,235.833 47.521 C 235.833 47.364,239.103 45.859,239.689 45.746 C 239.885 45.708,240.429 45.570,240.898 45.440 C 241.694 45.218,241.970 45.175,242.708 45.154 C 242.869 45.150,243.000 45.076,243.000 44.990 C 243.000 44.743,242.376 44.825,240.583 45.308 M295.917 45.000 C 295.860 45.092,295.973 45.167,296.167 45.167 C 296.361 45.167,296.473 45.092,296.417 45.000 C 296.360 44.908,296.248 44.833,296.167 44.833 C 296.086 44.833,295.973 44.908,295.917 45.000 M325.667 44.990 C 325.667 45.068,325.835 45.127,326.042 45.122 C 327.071 45.098,329.517 45.345,330.292 45.551 C 330.773 45.679,331.167 45.720,331.167 45.642 C 331.167 45.564,331.110 45.500,331.042 45.500 C 330.973 45.500,330.392 45.395,329.750 45.267 C 328.304 44.979,325.667 44.800,325.667 44.990 M374.099 44.956 C 374.032 45.024,373.888 45.080,373.780 45.081 C 373.420 45.085,371.333 45.744,371.333 45.854 C 371.333 45.946,373.237 45.483,374.000 45.205 C 374.137 45.155,374.306 45.126,374.375 45.140 C 374.444 45.155,374.500 45.092,374.500 45.000 C 374.500 44.805,374.275 44.780,374.099 44.956 M378.750 45.053 C 379.025 45.181,379.281 45.259,379.319 45.226 C 379.440 45.123,379.266 45.031,378.750 44.923 L 378.250 44.819 378.750 45.053 M189.833 45.261 C 189.421 45.392,188.861 45.541,188.590 45.592 C 188.319 45.642,188.019 45.742,187.923 45.813 C 187.828 45.884,187.375 46.076,186.917 46.238 C 185.983 46.569,182.667 48.489,182.667 48.698 C 182.667 48.773,182.592 48.833,182.500 48.833 C 182.408 48.833,182.189 48.965,182.012 49.125 C 181.835 49.285,181.568 49.518,181.418 49.642 C 181.268 49.766,181.187 49.910,181.240 49.962 C 181.292 50.014,181.466 49.934,181.626 49.783 C 182.320 49.129,183.141 48.500,183.300 48.500 C 183.395 48.500,183.497 48.444,183.528 48.375 C 183.717 47.950,187.253 46.150,188.355 45.917 C 188.504 45.886,188.976 45.742,189.402 45.597 C 189.829 45.452,190.288 45.333,190.422 45.333 C 190.557 45.333,190.667 45.258,190.667 45.167 C 190.667 45.075,190.648 45.005,190.625 45.011 C 190.602 45.017,190.246 45.130,189.833 45.261 M213.193 45.073 C 213.254 45.139,213.707 45.217,214.200 45.247 C 215.150 45.305,216.369 45.830,216.895 46.408 C 217.444 47.012,218.000 47.983,218.000 48.340 C 218.000 48.530,218.065 48.646,218.144 48.597 C 218.325 48.486,218.181 47.667,217.981 47.667 C 217.900 47.667,217.852 47.602,217.875 47.522 C 217.966 47.208,216.769 45.973,215.991 45.579 C 215.242 45.199,212.924 44.780,213.193 45.073 M293.417 45.160 C 293.142 45.232,292.482 45.388,291.951 45.507 C 291.419 45.626,290.944 45.789,290.895 45.868 C 290.801 46.020,291.569 45.877,292.000 45.663 C 292.137 45.594,292.644 45.485,293.125 45.420 C 293.606 45.355,294.000 45.234,294.000 45.151 C 294.000 45.068,293.981 45.007,293.958 45.015 C 293.935 45.023,293.692 45.089,293.417 45.160 M294.375 45.115 C 294.535 45.157,294.798 45.157,294.958 45.115 C 295.119 45.073,294.987 45.039,294.667 45.039 C 294.346 45.039,294.215 45.073,294.375 45.115 M296.700 45.089 C 296.844 45.233,298.816 45.273,298.727 45.130 C 298.683 45.059,298.189 45.000,297.629 45.000 C 297.069 45.000,296.651 45.040,296.700 45.089 M322.623 45.313 C 322.003 45.475,321.459 45.570,321.415 45.526 C 321.370 45.481,321.333 45.532,321.333 45.639 C 321.333 45.881,321.214 45.893,322.742 45.502 C 323.455 45.320,324.330 45.182,324.686 45.196 C 325.043 45.210,325.384 45.172,325.445 45.111 C 325.668 44.888,323.718 45.028,322.623 45.313 M199.333 45.417 C 199.654 45.540,200.067 45.641,200.250 45.641 C 200.460 45.641,200.367 45.558,200.000 45.417 C 199.679 45.293,199.267 45.192,199.083 45.192 C 198.874 45.192,198.966 45.275,199.333 45.417 M250.500 45.311 C 250.637 45.398,251.050 45.515,251.417 45.571 C 251.872 45.641,251.978 45.626,251.750 45.525 C 251.238 45.297,250.198 45.119,250.500 45.311 M299.083 45.247 C 299.451 45.414,300.697 45.631,300.562 45.504 C 300.482 45.429,300.079 45.323,299.667 45.269 C 299.254 45.215,298.992 45.205,299.083 45.247 M380.250 45.609 C 381.139 46.065,382.500 47.394,382.500 47.807 C 382.500 47.944,382.550 48.006,382.610 47.945 C 382.785 47.771,382.115 46.511,381.792 46.406 C 381.631 46.354,381.500 46.253,381.500 46.182 C 381.500 46.013,379.938 45.164,379.644 45.174 C 379.519 45.179,379.792 45.374,380.250 45.609 M200.708 45.707 C 200.746 45.822,200.865 45.926,200.972 45.938 C 201.079 45.949,201.185 45.973,201.208 45.992 C 201.231 46.010,201.372 46.049,201.521 46.078 C 201.669 46.107,202.066 46.261,202.401 46.421 C 202.737 46.580,203.057 46.665,203.112 46.610 C 203.168 46.555,202.996 46.431,202.731 46.335 C 202.467 46.238,202.100 46.088,201.917 46.000 C 201.090 45.604,200.637 45.494,200.708 45.707 M210.742 46.377 C 209.704 47.490,209.885 47.529,211.037 46.440 C 211.551 45.953,211.867 45.556,211.739 45.556 C 211.612 45.556,211.163 45.925,210.742 46.377 M252.265 45.624 C 252.166 45.723,253.579 46.363,254.378 46.581 C 254.707 46.671,254.716 46.661,254.451 46.495 C 253.832 46.109,252.365 45.524,252.265 45.624 M276.528 45.813 C 276.381 45.906,276.480 45.947,276.819 45.935 C 277.101 45.925,277.333 45.860,277.333 45.792 C 277.333 45.624,276.804 45.637,276.528 45.813 M320.517 45.847 C 320.298 45.935,320.160 46.049,320.211 46.100 C 320.262 46.151,320.517 46.077,320.777 45.936 C 321.300 45.653,321.141 45.598,320.517 45.847 M332.033 45.850 C 332.068 45.953,332.405 46.142,332.783 46.270 C 333.161 46.398,333.796 46.689,334.194 46.916 C 334.995 47.374,335.451 47.480,334.870 47.074 C 334.238 46.631,331.967 45.651,332.033 45.850 M22.626 46.784 C 22.289 47.308,22.050 47.772,22.094 47.816 C 22.187 47.910,22.593 47.380,23.122 46.472 C 23.704 45.475,23.310 45.723,22.626 46.784 M275.083 46.192 C 274.177 46.659,272.818 48.167,273.303 48.167 C 273.399 48.167,273.522 48.027,273.576 47.857 C 273.715 47.418,274.621 46.647,275.501 46.219 C 275.913 46.018,276.137 45.853,276.000 45.851 C 275.862 45.849,275.450 46.003,275.083 46.192 M289.905 46.142 C 289.532 46.293,289.028 46.548,288.786 46.708 C 288.543 46.869,288.230 47.000,288.089 47.000 C 287.948 47.000,287.833 47.061,287.833 47.136 C 287.833 47.210,287.590 47.398,287.292 47.552 C 286.780 47.816,285.646 48.597,284.787 49.276 C 284.265 49.689,281.833 52.374,281.833 52.537 C 281.833 52.821,282.103 52.636,282.465 52.104 C 282.865 51.516,284.636 49.717,285.311 49.212 C 285.529 49.049,285.840 48.793,286.003 48.642 C 286.166 48.491,286.663 48.157,287.108 47.900 C 287.553 47.643,287.954 47.391,288.000 47.340 C 288.089 47.241,288.803 46.895,289.956 46.391 C 290.345 46.222,290.664 46.027,290.665 45.958 C 290.666 45.890,290.648 45.841,290.625 45.851 C 290.602 45.860,290.278 45.991,289.905 46.142 M356.333 46.132 C 356.012 46.290,355.577 46.532,355.366 46.668 C 354.895 46.973,354.000 48.387,354.000 48.826 C 354.000 49.003,353.925 49.193,353.833 49.250 C 353.624 49.379,353.615 49.667,353.820 49.667 C 353.904 49.667,354.024 49.423,354.085 49.125 C 354.376 47.708,355.858 46.267,357.250 46.047 C 357.922 45.942,358.002 45.832,357.403 45.839 C 357.135 45.842,356.654 45.974,356.333 46.132 M359.167 45.952 C 359.304 46.003,359.711 46.184,360.071 46.354 C 360.430 46.525,360.756 46.633,360.795 46.594 C 360.909 46.479,359.541 45.832,359.215 45.846 C 358.982 45.857,358.972 45.880,359.167 45.952 M370.333 46.224 C 369.413 46.656,369.426 46.648,369.529 46.751 C 369.593 46.816,370.584 46.383,371.153 46.042 C 371.531 45.815,370.913 45.953,370.333 46.224 M279.313 46.500 C 280.270 47.028,280.514 47.271,280.936 48.125 C 281.178 48.613,281.509 48.860,281.494 48.542 C 281.466 47.899,279.363 45.996,278.689 46.003 C 278.539 46.005,278.820 46.228,279.313 46.500 M303.073 46.413 C 303.525 46.644,303.938 46.832,303.989 46.831 C 304.192 46.824,303.059 46.197,302.667 46.098 C 302.438 46.040,302.620 46.182,303.073 46.413 M319.333 46.324 C 318.665 46.531,317.027 47.500,317.345 47.500 C 317.388 47.500,318.020 47.200,318.750 46.833 C 320.043 46.184,320.184 46.061,319.333 46.324 M254.833 46.633 C 254.833 46.711,255.190 46.949,255.625 47.163 C 256.060 47.377,256.627 47.699,256.885 47.878 C 257.353 48.203,257.696 48.201,257.296 47.875 C 256.858 47.519,254.833 46.498,254.833 46.633 M75.906 47.232 C 75.637 47.543,75.154 48.114,74.833 48.500 C 74.015 49.485,73.965 49.544,73.513 50.049 C 73.290 50.297,73.190 50.500,73.289 50.500 C 73.388 50.500,73.908 49.969,74.443 49.319 C 74.979 48.670,75.660 47.864,75.958 47.528 C 76.432 46.992,76.617 46.667,76.447 46.667 C 76.418 46.667,76.175 46.921,75.906 47.232 M203.833 47.025 C 206.015 48.345,207.387 49.371,208.583 50.577 L 209.417 51.417 209.515 50.000 C 209.572 49.177,209.730 48.357,209.894 48.042 C 210.049 47.744,210.106 47.500,210.022 47.500 C 209.725 47.500,209.333 48.854,209.333 49.882 L 209.333 50.924 208.292 49.942 C 207.252 48.961,205.332 47.595,204.142 46.988 C 203.302 46.559,203.103 46.583,203.833 47.025 M361.568 47.476 C 361.898 47.966,362.287 48.778,362.432 49.280 C 362.743 50.348,362.947 50.375,362.660 49.309 C 362.393 48.317,361.951 47.496,361.417 47.000 C 361.027 46.637,361.047 46.699,361.568 47.476 M368.333 47.342 C 366.577 48.545,363.500 51.735,363.500 52.353 C 363.500 52.465,363.375 52.695,363.223 52.863 C 363.071 53.031,362.988 53.210,363.038 53.261 C 363.089 53.311,363.294 53.123,363.493 52.843 C 363.693 52.563,363.812 52.333,363.757 52.333 C 363.670 52.333,364.309 51.486,365.252 50.352 C 365.965 49.494,367.065 48.496,367.969 47.887 C 368.987 47.201,369.409 46.848,369.312 46.765 C 369.278 46.737,368.837 46.996,368.333 47.342 M94.301 47.192 C 94.090 47.251,94.793 47.308,95.865 47.317 C 96.937 47.326,97.848 47.277,97.891 47.208 C 97.985 47.055,94.837 47.041,94.301 47.192 M304.500 47.171 C 304.500 47.248,304.656 47.360,304.847 47.421 C 305.208 47.536,307.667 49.866,307.667 50.094 C 307.667 50.165,307.791 50.361,307.944 50.530 C 308.096 50.698,308.302 50.977,308.402 51.151 C 309.022 52.228,309.485 53.201,309.738 53.963 C 310.079 54.990,310.081 54.989,311.010 53.587 C 311.406 52.989,311.791 52.500,311.865 52.500 C 311.939 52.500,312.000 52.415,312.000 52.311 C 312.000 52.208,312.244 51.884,312.542 51.592 C 312.840 51.300,313.206 50.916,313.355 50.739 C 313.822 50.186,315.504 48.771,316.253 48.301 C 317.123 47.755,317.415 47.366,316.640 47.783 C 315.856 48.206,313.549 50.169,312.721 51.119 C 311.452 52.573,310.816 53.384,310.569 53.861 C 310.435 54.121,310.291 54.333,310.250 54.333 C 310.146 54.333,309.500 52.895,309.500 52.664 C 309.500 52.561,309.275 52.150,309.000 51.750 C 308.725 51.350,308.500 50.955,308.500 50.871 C 308.500 50.787,308.350 50.583,308.167 50.417 C 307.983 50.251,307.833 50.049,307.833 49.968 C 307.833 49.720,305.197 47.214,304.837 47.119 C 304.652 47.071,304.500 47.094,304.500 47.171 M92.167 47.185 C 92.167 47.409,91.812 50.154,91.733 50.542 C 91.682 50.794,91.705 51.000,91.784 51.000 C 91.863 51.000,91.943 50.814,91.962 50.586 C 91.980 50.358,92.070 49.519,92.161 48.721 C 92.251 47.923,92.290 47.234,92.246 47.191 C 92.202 47.147,92.167 47.144,92.167 47.185 M98.500 47.309 C 98.500 47.375,98.740 47.447,99.033 47.470 C 99.326 47.492,99.514 47.458,99.450 47.394 C 99.289 47.233,98.500 47.163,98.500 47.309 M100.442 47.499 C 100.520 47.572,100.947 47.707,101.392 47.799 C 101.836 47.891,102.136 47.907,102.058 47.834 C 101.980 47.761,101.553 47.626,101.108 47.534 C 100.664 47.442,100.364 47.426,100.442 47.499 M335.333 47.655 C 335.333 47.753,335.393 47.833,335.466 47.833 C 335.645 47.833,336.990 49.118,337.458 49.736 C 337.665 50.009,337.832 50.123,337.831 49.991 C 337.827 49.702,336.632 48.401,335.875 47.863 C 335.577 47.651,335.333 47.557,335.333 47.655 M102.516 48.013 C 102.803 48.195,103.167 48.211,103.167 48.042 C 103.166 47.973,102.967 47.905,102.724 47.891 C 102.408 47.873,102.349 47.908,102.516 48.013 M21.683 48.375 C 21.604 48.581,21.537 48.817,21.534 48.898 C 21.531 48.979,21.456 49.092,21.367 49.148 C 21.278 49.204,20.850 50.000,20.415 50.917 C 19.981 51.833,19.593 52.640,19.553 52.708 C 19.513 52.777,19.562 52.833,19.662 52.833 C 19.762 52.833,19.886 52.702,19.938 52.542 C 19.990 52.381,20.438 51.418,20.933 50.401 C 21.428 49.384,21.833 48.472,21.833 48.373 C 21.833 48.275,21.927 48.157,22.042 48.110 C 22.206 48.044,22.205 48.024,22.038 48.013 C 21.921 48.006,21.761 48.169,21.683 48.375 M103.605 48.132 C 103.555 48.212,103.605 48.278,103.716 48.278 C 103.827 48.278,104.421 48.440,105.035 48.639 C 106.527 49.121,106.880 49.079,105.472 48.587 C 103.781 47.995,103.701 47.976,103.605 48.132 M94.003 48.445 C 94.001 48.643,93.950 48.937,93.888 49.097 C 93.818 49.280,93.842 49.348,93.952 49.280 C 94.204 49.124,94.316 48.574,94.149 48.310 C 94.043 48.143,94.004 48.178,94.003 48.445 M257.667 48.320 C 257.667 48.419,257.747 48.500,257.845 48.500 C 257.943 48.500,258.128 48.594,258.256 48.708 C 258.384 48.823,258.926 49.292,259.462 49.750 C 263.148 52.906,262.804 56.682,258.750 57.556 C 258.498 57.611,258.523 57.633,258.856 57.647 C 261.389 57.759,263.173 54.107,261.696 51.833 C 261.548 51.604,261.441 51.365,261.460 51.302 C 261.478 51.239,261.345 51.140,261.163 51.082 C 260.982 51.025,260.833 50.922,260.833 50.854 C 260.833 50.583,259.182 49.069,258.292 48.523 C 257.948 48.312,257.667 48.221,257.667 48.320 M382.591 48.348 C 382.768 48.586,382.786 49.874,382.619 50.333 C 382.569 50.471,382.481 50.796,382.424 51.056 C 382.319 51.534,382.188 51.737,381.583 52.359 C 381.118 52.839,380.057 53.500,379.753 53.500 C 379.614 53.500,379.500 53.575,379.500 53.667 C 379.500 53.758,379.534 53.833,379.575 53.833 C 379.759 53.833,380.610 53.414,380.875 53.192 C 381.035 53.058,381.167 52.994,381.167 53.049 C 381.167 53.373,382.368 51.837,382.609 51.205 C 382.984 50.223,383.021 48.317,382.667 48.197 C 382.476 48.132,382.458 48.168,382.591 48.348 M272.885 48.708 C 272.711 48.976,272.616 87.843,272.788 88.504 C 272.859 88.778,272.917 80.058,272.917 69.126 C 272.917 53.241,272.960 49.175,273.131 48.875 C 273.352 48.488,273.126 48.335,272.885 48.708 M106.759 49.046 C 106.838 49.253,108.147 49.742,108.276 49.613 C 108.313 49.576,108.098 49.454,107.797 49.342 C 107.496 49.230,107.122 49.071,106.965 48.989 C 106.760 48.881,106.702 48.897,106.759 49.046 M281.393 49.313 C 281.452 49.622,281.500 50.578,281.500 51.438 C 281.500 52.297,281.556 53.000,281.625 53.000 C 281.800 53.001,281.617 49.059,281.434 48.889 C 281.348 48.808,281.330 48.985,281.393 49.313 M93.833 50.444 C 93.833 50.872,93.870 51.186,93.915 51.141 C 94.060 50.995,94.110 49.667,93.970 49.667 C 93.895 49.667,93.833 50.017,93.833 50.444 M108.583 49.833 C 108.640 49.925,108.792 50.000,108.922 50.000 C 109.236 50.000,110.637 50.631,113.202 51.928 C 115.324 53.002,115.918 53.241,115.180 52.724 C 114.667 52.365,110.992 50.484,110.667 50.414 C 110.529 50.385,110.117 50.229,109.750 50.068 C 108.929 49.707,108.445 49.610,108.583 49.833 M218.208 69.000 C 218.171 87.030,218.147 88.475,217.876 89.235 C 217.483 90.334,216.274 91.580,215.362 91.826 C 214.553 92.043,214.434 92.223,215.176 92.106 C 215.841 92.002,216.439 91.610,217.208 90.776 C 218.420 89.460,218.345 90.939,218.294 69.167 L 218.249 49.583 218.208 69.000 M179.892 51.051 C 179.438 51.540,178.884 52.197,178.662 52.511 C 178.441 52.826,178.126 53.229,177.963 53.406 C 177.800 53.584,177.667 53.800,177.667 53.887 C 177.667 53.973,177.532 54.166,177.368 54.314 C 176.485 55.109,174.495 60.033,174.059 62.500 C 174.019 62.729,173.920 63.160,173.840 63.457 C 173.754 63.777,173.757 64.036,173.847 64.092 C 173.931 64.144,174.006 64.088,174.014 63.968 C 174.022 63.848,174.055 63.600,174.088 63.417 C 174.121 63.233,174.198 62.787,174.259 62.425 C 174.320 62.063,174.611 61.050,174.906 60.175 C 175.200 59.300,175.473 58.474,175.512 58.340 C 175.551 58.206,175.752 57.764,175.958 57.357 C 176.165 56.950,176.333 56.545,176.333 56.458 C 176.333 56.370,176.558 55.965,176.833 55.557 C 177.108 55.150,177.333 54.780,177.333 54.735 C 177.333 54.649,177.965 53.729,178.250 53.400 C 178.342 53.294,178.529 53.036,178.667 52.826 C 178.804 52.617,179.029 52.326,179.167 52.181 C 180.348 50.932,180.870 50.314,180.800 50.245 C 180.756 50.200,180.347 50.563,179.892 51.051 M338.000 50.266 C 338.000 50.456,338.573 51.333,338.697 51.333 C 338.766 51.333,338.667 51.071,338.478 50.750 C 338.152 50.197,338.000 50.044,338.000 50.266 M362.700 52.250 C 362.687 53.350,362.736 54.137,362.809 54.000 C 362.881 53.862,362.892 52.962,362.832 52.000 L 362.723 50.250 362.700 52.250 M72.067 51.767 C 71.526 52.373,70.762 53.207,70.369 53.622 C 69.976 54.037,69.691 54.413,69.736 54.458 C 69.780 54.502,70.102 54.221,70.450 53.831 C 70.798 53.442,71.552 52.630,72.125 52.027 C 73.031 51.072,73.324 50.667,73.109 50.667 C 73.077 50.667,72.608 51.162,72.067 51.767 M91.647 51.292 C 91.636 51.360,91.633 51.463,91.639 51.519 C 91.646 51.576,91.428 52.476,91.155 53.519 C 90.489 56.065,90.502 56.000,90.644 56.000 C 90.766 56.000,91.449 53.510,91.613 52.468 C 91.658 52.181,91.762 51.772,91.843 51.557 C 91.936 51.313,91.931 51.167,91.829 51.167 C 91.740 51.167,91.658 51.223,91.647 51.292 M93.663 51.708 C 93.659 52.073,93.147 54.122,92.914 54.708 C 92.848 54.874,92.873 55.000,92.971 55.000 C 93.151 55.000,93.298 54.650,93.435 53.893 C 93.479 53.650,93.615 52.974,93.737 52.392 C 93.859 51.810,93.893 51.333,93.813 51.333 C 93.733 51.333,93.665 51.502,93.663 51.708 M66.453 52.882 C 65.259 54.090,64.671 54.808,65.401 54.167 C 66.131 53.525,67.667 51.995,67.667 51.909 C 67.667 51.708,67.408 51.915,66.453 52.882 M339.000 51.974 C 339.000 52.281,339.536 53.167,339.721 53.164 C 339.835 53.163,339.813 53.094,339.667 53.000 C 339.529 52.911,339.475 52.837,339.546 52.836 C 339.617 52.834,339.559 52.608,339.417 52.333 C 339.161 51.839,339.000 51.700,339.000 51.974 M243.866 52.185 C 243.710 52.241,243.433 52.263,243.250 52.235 C 242.868 52.175,241.098 52.654,241.226 52.782 C 241.273 52.829,241.586 52.776,241.923 52.665 C 242.689 52.412,243.544 52.329,245.278 52.338 C 246.027 52.343,246.680 52.280,246.730 52.199 C 246.830 52.037,244.313 52.024,243.866 52.185 M247.000 52.101 C 247.000 52.255,247.659 52.481,247.738 52.353 C 247.788 52.271,247.643 52.169,247.415 52.126 C 247.187 52.082,247.000 52.071,247.000 52.101 M248.097 52.356 C 248.146 52.435,248.334 52.500,248.514 52.500 C 248.694 52.500,249.252 52.644,249.754 52.821 C 250.256 52.997,250.667 53.078,250.667 53.000 C 250.667 52.923,250.423 52.779,250.125 52.681 C 249.268 52.400,247.999 52.196,248.097 52.356 M371.875 52.672 C 371.313 52.898,371.424 52.999,372.041 52.822 C 372.714 52.629,374.214 52.628,375.042 52.820 C 375.385 52.900,375.667 52.908,375.667 52.838 C 375.667 52.518,372.592 52.384,371.875 52.672 M195.351 52.812 C 195.191 52.918,195.417 52.985,196.075 53.025 C 196.602 53.057,197.067 53.027,197.109 52.958 C 197.152 52.890,197.041 52.833,196.864 52.833 C 196.687 52.833,196.326 52.794,196.063 52.745 C 195.799 52.697,195.479 52.727,195.351 52.812 M192.859 53.095 C 191.909 53.351,191.256 53.653,191.636 53.662 C 191.757 53.664,191.999 53.590,192.174 53.496 C 192.349 53.402,192.771 53.303,193.112 53.275 C 193.452 53.247,193.760 53.136,193.796 53.029 C 193.832 52.921,193.836 52.838,193.806 52.844 C 193.775 52.850,193.349 52.963,192.859 53.095 M194.180 52.992 C 194.039 53.079,194.115 53.125,194.402 53.125 C 194.643 53.125,194.870 53.075,194.908 53.014 C 195.008 52.852,194.434 52.835,194.180 52.992 M197.924 52.988 C 197.876 53.066,197.986 53.168,198.169 53.215 C 198.351 53.263,198.500 53.242,198.500 53.169 C 198.500 52.973,198.025 52.824,197.924 52.988 M369.820 53.312 C 368.516 53.948,367.010 55.105,366.239 56.066 C 365.878 56.515,365.484 56.984,365.363 57.108 C 365.242 57.232,365.191 57.333,365.250 57.333 C 365.309 57.333,365.239 57.451,365.095 57.595 C 364.951 57.739,364.833 57.976,364.833 58.120 C 364.833 58.265,365.040 58.081,365.292 57.712 C 366.864 55.407,369.507 53.268,371.056 53.048 C 371.358 53.005,371.369 52.834,371.069 52.846 C 370.894 52.853,370.331 53.063,369.820 53.312 M375.833 52.932 C 375.833 53.142,377.517 53.697,378.412 53.781 C 379.561 53.889,379.630 53.735,378.493 53.598 C 378.080 53.549,377.313 53.360,376.788 53.180 C 376.263 52.999,375.833 52.887,375.833 52.932 M198.753 53.171 C 198.794 53.238,199.185 53.388,199.622 53.505 C 200.710 53.797,200.881 53.826,200.754 53.698 C 200.592 53.537,198.665 53.029,198.753 53.171 M239.831 53.395 C 236.980 54.903,236.771 59.953,239.479 61.920 C 240.696 62.805,243.316 64.049,244.537 64.323 C 244.931 64.411,245.533 64.601,245.876 64.744 C 246.219 64.887,246.500 64.957,246.500 64.898 C 246.500 64.840,246.612 64.886,246.750 65.000 C 246.930 65.149,247.000 65.154,247.000 65.015 C 247.000 64.909,246.906 64.799,246.792 64.770 C 246.423 64.677,244.100 63.967,243.583 63.790 C 239.463 62.376,237.424 60.102,237.743 57.278 C 237.931 55.614,238.459 54.680,239.726 53.770 C 240.963 52.882,240.991 52.782,239.831 53.395 M250.909 53.154 C 250.961 53.238,251.340 53.436,251.752 53.593 C 252.163 53.750,252.500 53.943,252.500 54.023 C 252.500 54.102,252.612 54.167,252.750 54.167 C 252.887 54.167,253.000 54.237,253.000 54.322 C 253.000 54.408,253.158 54.528,253.350 54.589 C 253.543 54.650,254.237 55.243,254.892 55.906 C 256.102 57.130,257.062 57.677,257.962 57.656 C 258.277 57.648,258.143 57.571,257.528 57.406 C 256.445 57.114,256.393 57.078,254.634 55.417 C 253.152 54.017,250.414 52.353,250.909 53.154 M291.021 53.253 C 290.345 53.375,289.715 53.552,289.621 53.646 C 289.527 53.740,289.855 53.708,290.350 53.577 C 290.845 53.445,291.489 53.336,291.782 53.335 C 292.074 53.334,292.360 53.258,292.417 53.167 C 292.537 52.971,292.593 52.968,291.021 53.253 M294.167 53.164 C 294.304 53.254,294.615 53.329,294.857 53.331 C 295.474 53.334,297.475 53.967,298.125 54.363 C 298.423 54.545,298.667 54.627,298.667 54.544 C 298.667 54.346,297.414 53.648,296.949 53.588 C 296.748 53.562,296.246 53.461,295.833 53.364 C 294.545 53.060,293.887 52.981,294.167 53.164 M321.667 53.167 L 321.083 53.289 321.615 53.311 C 321.908 53.323,322.193 53.258,322.250 53.167 C 322.307 53.075,322.330 53.010,322.302 53.022 C 322.273 53.034,321.987 53.099,321.667 53.167 M323.715 53.110 C 323.768 53.196,324.107 53.284,324.468 53.306 C 324.829 53.327,325.377 53.417,325.686 53.505 C 326.382 53.705,326.545 53.708,326.429 53.519 C 326.378 53.438,325.980 53.322,325.544 53.261 C 325.107 53.200,324.495 53.106,324.184 53.052 C 323.849 52.994,323.658 53.018,323.715 53.110 M116.000 53.245 C 116.000 53.401,116.707 53.987,116.904 53.994 C 116.988 53.998,117.195 54.125,117.363 54.277 C 117.531 54.429,117.710 54.512,117.761 54.462 C 117.811 54.411,117.604 54.196,117.301 53.985 C 116.998 53.773,116.695 53.521,116.628 53.425 C 116.560 53.329,116.504 53.315,116.503 53.395 C 116.501 53.475,116.388 53.447,116.250 53.333 C 116.112 53.219,116.000 53.179,116.000 53.245 M19.158 53.774 C 19.065 54.016,18.950 54.279,18.902 54.357 C 18.853 54.436,18.879 54.500,18.959 54.500 C 19.039 54.500,19.230 54.237,19.383 53.917 C 19.536 53.596,19.586 53.333,19.493 53.333 C 19.401 53.333,19.250 53.532,19.158 53.774 M320.319 53.401 C 320.281 53.438,320.025 53.509,319.750 53.559 C 319.475 53.609,319.063 53.705,318.833 53.771 C 318.360 53.910,316.293 54.980,316.167 55.153 C 316.121 55.215,315.821 55.446,315.500 55.667 C 315.179 55.887,314.778 56.221,314.609 56.409 C 313.737 57.376,313.088 58.228,313.125 58.356 C 313.148 58.435,313.104 58.500,313.027 58.500 C 312.873 58.500,312.424 59.341,312.471 59.542 C 312.487 59.610,312.413 59.667,312.306 59.667 C 312.199 59.667,312.158 59.714,312.216 59.771 C 312.273 59.829,312.211 60.087,312.077 60.346 C 311.943 60.605,311.834 60.914,311.836 61.033 C 311.837 61.153,312.194 60.531,312.630 59.652 C 313.066 58.773,313.533 57.942,313.669 57.806 C 313.805 57.669,314.142 57.301,314.417 56.987 C 315.673 55.554,317.763 54.303,319.937 53.684 C 320.567 53.504,320.927 53.352,320.736 53.345 C 320.545 53.339,320.358 53.364,320.319 53.401 M326.667 53.658 C 326.667 53.751,326.873 53.875,327.125 53.935 C 327.875 54.110,329.205 54.991,329.899 55.771 C 330.256 56.172,330.631 56.499,330.733 56.497 C 330.856 56.496,330.860 56.455,330.744 56.372 C 330.650 56.305,330.298 55.911,329.964 55.496 C 329.444 54.853,327.333 53.452,327.333 53.751 C 327.333 53.803,327.183 53.765,327.000 53.667 C 326.780 53.549,326.667 53.546,326.667 53.658 M190.042 54.043 C 189.652 54.239,189.333 54.502,189.333 54.628 C 189.333 54.800,189.447 54.777,189.792 54.538 C 190.044 54.364,190.381 54.174,190.542 54.116 C 190.702 54.058,190.833 53.933,190.833 53.839 C 190.833 53.630,190.898 53.613,190.042 54.043 M288.125 54.094 C 287.690 54.321,287.333 54.541,287.333 54.583 C 287.333 54.678,288.191 54.320,288.408 54.135 C 288.495 54.061,288.697 54.000,288.857 54.000 C 289.016 54.000,289.193 53.925,289.250 53.833 C 289.423 53.553,288.957 53.661,288.125 54.094 M339.959 54.417 C 340.095 54.829,340.269 55.167,340.345 55.167 C 340.422 55.167,340.359 54.829,340.206 54.417 C 340.053 54.004,339.880 53.667,339.820 53.667 C 339.761 53.667,339.823 54.004,339.959 54.417 M201.000 53.905 C 201.000 53.944,201.356 54.148,201.792 54.357 C 204.513 55.664,207.186 58.609,208.411 61.652 C 208.681 62.324,208.930 62.794,208.963 62.695 C 209.050 62.433,208.383 60.930,207.437 59.254 C 206.293 57.230,201.000 52.831,201.000 53.905 M118.007 54.625 C 118.011 54.694,118.503 55.050,119.101 55.417 C 119.700 55.783,120.279 56.158,120.390 56.250 C 122.141 57.700,122.333 57.833,122.333 57.593 C 122.333 57.450,122.270 57.333,122.192 57.333 C 122.115 57.333,121.896 57.202,121.706 57.042 C 121.516 56.881,121.153 56.600,120.899 56.417 C 120.646 56.233,120.235 55.915,119.987 55.708 C 119.738 55.502,119.464 55.333,119.377 55.333 C 119.290 55.333,119.001 55.146,118.734 54.917 C 118.245 54.496,117.994 54.396,118.007 54.625 M298.833 54.595 C 298.833 54.707,299.455 55.415,300.269 56.230 C 300.463 56.424,300.862 57.060,301.155 57.642 C 301.449 58.224,301.724 58.665,301.768 58.621 C 301.865 58.524,301.301 57.272,301.125 57.194 C 301.056 57.164,300.999 57.051,300.998 56.944 C 300.996 56.681,299.859 55.274,299.292 54.833 C 299.040 54.636,298.833 54.530,298.833 54.595 M18.553 55.663 C 18.372 56.215,18.276 56.667,18.339 56.667 C 18.481 56.667,19.067 54.845,18.960 54.737 C 18.917 54.695,18.734 55.111,18.553 55.663 M63.964 55.292 C 63.577 55.635,63.025 56.142,62.738 56.417 C 62.001 57.122,60.055 58.846,59.167 59.582 C 58.754 59.924,58.042 60.514,57.583 60.893 C 57.125 61.273,56.502 61.823,56.200 62.117 C 55.897 62.410,55.635 62.636,55.617 62.618 C 55.536 62.541,54.011 63.732,53.934 63.932 C 53.831 64.199,55.552 62.957,56.833 61.839 C 57.337 61.399,58.313 60.574,59.000 60.006 C 60.431 58.822,61.792 57.605,63.619 55.875 C 64.946 54.619,65.194 54.199,63.964 55.292 M68.417 55.716 C 67.201 56.973,66.734 57.554,67.250 57.167 C 67.433 57.029,67.796 56.692,68.056 56.417 C 68.317 56.142,68.801 55.635,69.132 55.292 C 69.463 54.948,69.663 54.670,69.575 54.675 C 69.488 54.679,68.967 55.148,68.417 55.716 M188.412 55.098 C 186.803 56.189,183.500 60.199,183.500 61.060 C 183.500 61.302,183.763 61.138,183.933 60.790 C 184.481 59.675,184.940 58.902,185.125 58.783 C 185.240 58.710,185.333 58.575,185.333 58.484 C 185.333 58.309,185.633 57.970,187.050 56.543 C 187.527 56.063,187.978 55.669,188.054 55.668 C 188.129 55.667,188.301 55.556,188.437 55.420 C 188.572 55.285,188.810 55.103,188.965 55.016 C 189.120 54.929,189.203 54.814,189.150 54.761 C 189.096 54.707,188.764 54.859,188.412 55.098 M286.250 55.087 C 284.780 56.290,284.316 56.773,283.529 57.921 C 283.055 58.613,282.664 59.233,282.661 59.298 C 282.658 59.363,282.510 59.717,282.333 60.083 C 282.156 60.450,282.009 60.914,282.006 61.115 C 282.003 61.316,281.928 61.525,281.841 61.579 C 281.753 61.633,281.728 61.799,281.785 61.949 C 281.903 62.256,282.098 61.861,282.248 61.011 C 282.561 59.233,284.444 56.681,286.588 55.125 C 286.936 54.873,287.115 54.669,286.985 54.672 C 286.856 54.675,286.525 54.861,286.250 55.087 M92.546 56.260 C 92.342 56.887,92.268 57.327,92.372 57.293 C 92.471 57.260,92.579 57.049,92.612 56.825 C 92.644 56.600,92.782 56.135,92.917 55.792 C 93.053 55.448,93.105 55.167,93.033 55.167 C 92.960 55.167,92.741 55.659,92.546 56.260 M340.406 55.917 C 340.464 56.283,340.578 56.846,340.661 57.167 C 340.744 57.487,340.856 58.049,340.911 58.414 C 340.966 58.779,341.094 59.154,341.196 59.247 C 341.325 59.364,341.349 59.358,341.275 59.225 C 341.216 59.120,341.129 58.726,341.082 58.350 C 341.035 57.974,340.891 57.215,340.762 56.663 C 340.633 56.111,340.528 55.618,340.528 55.566 C 340.528 55.515,340.477 55.422,340.415 55.361 C 340.352 55.300,340.349 55.550,340.406 55.917 M90.333 56.467 C 90.333 56.632,90.243 56.857,90.133 56.967 C 90.023 57.077,89.983 57.167,90.044 57.167 C 90.105 57.167,90.000 57.523,89.811 57.958 C 89.254 59.243,89.112 59.579,89.090 59.667 C 89.079 59.712,88.937 59.999,88.775 60.303 C 88.612 60.607,88.507 60.937,88.540 61.035 C 88.593 61.197,88.928 60.530,89.777 58.569 C 89.932 58.210,90.077 57.842,90.098 57.750 C 90.120 57.658,90.254 57.265,90.395 56.875 C 90.536 56.485,90.580 56.167,90.493 56.167 C 90.405 56.167,90.333 56.302,90.333 56.467 M330.667 56.743 C 330.667 56.784,330.858 57.101,331.093 57.447 C 331.522 58.079,331.790 58.392,331.638 58.083 C 331.593 57.992,331.427 57.635,331.270 57.292 C 331.035 56.777,330.667 56.442,330.667 56.743 M18.167 56.876 C 18.167 56.900,18.093 57.176,18.003 57.490 C 17.911 57.809,17.906 57.992,17.991 57.905 C 18.180 57.713,18.407 56.833,18.268 56.833 C 18.212 56.833,18.167 56.853,18.167 56.876 M65.875 58.349 C 64.799 59.384,64.708 59.747,65.765 58.784 C 66.404 58.203,66.979 57.490,66.798 57.504 C 66.771 57.506,66.356 57.886,65.875 58.349 M122.667 57.961 C 122.667 58.030,123.060 58.395,123.542 58.771 C 124.023 59.147,124.716 59.709,125.081 60.019 C 126.272 61.031,130.759 65.554,131.758 66.750 C 132.294 67.392,132.868 68.062,133.033 68.240 C 133.198 68.417,133.333 68.618,133.333 68.686 C 133.333 68.754,133.427 68.910,133.542 69.034 C 134.060 69.592,134.833 70.664,134.833 70.824 C 134.833 70.921,134.908 71.000,135.000 71.000 C 135.092 71.000,135.167 71.075,135.167 71.166 C 135.167 71.258,135.429 71.698,135.750 72.145 C 136.071 72.591,136.333 73.008,136.333 73.070 C 136.333 73.133,136.521 73.460,136.750 73.798 C 136.979 74.135,137.167 74.342,137.167 74.258 C 137.167 73.957,136.485 72.705,136.162 72.413 C 135.981 72.249,135.833 72.042,135.833 71.954 C 135.833 71.760,134.325 69.607,134.134 69.528 C 134.060 69.497,134.000 69.391,134.000 69.292 C 134.000 69.193,133.889 68.993,133.754 68.847 C 133.618 68.702,132.852 67.796,132.052 66.833 C 129.878 64.218,125.514 59.916,123.753 58.651 C 123.339 58.354,123.000 58.048,123.000 57.972 C 123.000 57.896,122.925 57.833,122.833 57.833 C 122.742 57.833,122.667 57.891,122.667 57.961 M91.922 58.158 C 91.860 58.258,91.782 58.544,91.747 58.794 C 91.688 59.213,91.703 59.204,91.933 58.689 C 92.170 58.158,92.162 57.770,91.922 58.158 M17.813 58.250 C 17.801 58.296,17.778 58.390,17.761 58.458 C 17.744 58.527,17.636 59.146,17.520 59.833 C 17.404 60.521,17.272 61.215,17.226 61.375 C 17.181 61.535,17.224 61.667,17.322 61.667 C 17.420 61.667,17.500 61.445,17.500 61.175 C 17.500 60.904,17.574 60.323,17.664 59.883 C 17.917 58.645,17.984 58.167,17.906 58.167 C 17.866 58.167,17.824 58.204,17.813 58.250 M229.047 59.516 C 229.142 60.691,229.608 62.614,229.762 62.461 C 229.801 62.421,229.683 61.798,229.498 61.076 C 229.314 60.354,229.197 59.481,229.238 59.136 C 229.281 58.778,229.235 58.459,229.131 58.395 C 229.001 58.314,228.977 58.640,229.047 59.516 M331.500 58.490 C 331.500 58.576,331.567 58.689,331.650 58.740 C 331.805 58.835,332.160 60.141,332.210 60.795 C 332.225 61.000,332.298 61.167,332.371 61.167 C 332.530 61.167,332.412 60.413,332.063 59.208 C 331.844 58.453,331.500 58.014,331.500 58.490 M364.100 59.426 C 363.622 60.471,363.581 60.667,363.843 60.667 C 363.940 60.667,363.982 60.606,363.936 60.531 C 363.890 60.457,364.041 60.000,364.273 59.517 C 364.504 59.033,364.658 58.602,364.614 58.558 C 364.570 58.514,364.339 58.905,364.100 59.426 M301.758 59.208 C 301.904 59.693,302.162 59.973,302.085 59.563 C 302.052 59.391,302.011 59.212,301.993 59.167 C 301.975 59.121,301.969 59.027,301.980 58.958 C 301.991 58.890,301.920 58.833,301.822 58.833 C 301.715 58.833,301.689 58.983,301.758 59.208 M63.508 60.625 C 62.870 61.244,61.966 62.087,61.499 62.500 C 61.033 62.913,60.446 63.438,60.194 63.667 C 59.943 63.896,59.365 64.402,58.910 64.791 C 58.455 65.180,58.167 65.498,58.268 65.499 C 58.370 65.500,58.732 65.237,59.072 64.917 C 59.412 64.596,59.725 64.333,59.767 64.333 C 59.810 64.333,60.123 64.070,60.464 63.748 C 60.805 63.427,61.350 62.920,61.675 62.623 C 63.865 60.627,64.983 59.500,64.777 59.500 C 64.718 59.500,64.147 60.006,63.508 60.625 M91.071 60.292 C 90.508 61.612,90.505 61.628,90.802 61.726 C 90.957 61.777,91.327 61.931,91.625 62.068 C 92.350 62.402,92.310 62.274,91.542 61.801 C 90.942 61.433,90.650 61.000,91.000 61.000 C 91.092 61.000,91.167 60.885,91.167 60.744 C 91.167 60.603,91.288 60.303,91.436 60.077 C 91.598 59.830,91.632 59.667,91.521 59.667 C 91.420 59.667,91.218 59.948,91.071 60.292 M341.147 59.875 C 341.136 59.990,341.139 60.147,341.153 60.225 C 341.167 60.304,341.188 60.628,341.200 60.947 C 341.214 61.336,341.266 61.448,341.356 61.287 C 341.430 61.155,341.429 60.830,341.354 60.565 C 341.279 60.300,341.250 59.990,341.290 59.875 C 341.329 59.760,341.317 59.667,341.264 59.667 C 341.210 59.667,341.158 59.760,341.147 59.875 M302.063 60.425 C 302.415 61.342,302.509 64.425,302.545 76.208 C 302.570 84.745,302.640 89.153,302.750 89.125 C 302.842 89.102,302.879 89.008,302.833 88.917 C 302.787 88.825,302.706 82.563,302.651 75.000 C 302.557 61.795,302.509 60.461,302.118 60.220 C 302.006 60.151,301.986 60.224,302.063 60.425 M363.195 61.904 C 362.996 62.538,362.837 63.175,362.841 63.320 C 362.845 63.465,363.031 63.021,363.255 62.333 C 363.479 61.646,363.638 61.009,363.609 60.918 C 363.580 60.827,363.394 61.271,363.195 61.904 M183.084 62.042 C 182.717 62.954,182.173 64.986,182.181 65.417 C 182.184 65.600,182.337 65.188,182.521 64.500 C 182.705 63.813,182.925 63.179,183.011 63.092 C 183.097 63.005,183.167 62.795,183.167 62.625 C 183.167 62.456,183.281 62.096,183.421 61.825 C 183.561 61.555,183.606 61.333,183.522 61.333 C 183.438 61.333,183.241 61.652,183.084 62.042 M311.541 62.051 C 311.406 62.550,311.359 66.456,311.379 75.667 L 311.406 88.583 311.500 75.583 C 311.565 66.452,311.650 62.423,311.784 62.044 C 311.889 61.747,311.920 61.470,311.853 61.429 C 311.785 61.387,311.645 61.667,311.541 62.051 M87.866 62.223 C 87.684 62.726,87.112 63.701,86.335 64.837 C 86.176 65.067,85.993 65.442,85.928 65.670 C 85.793 66.141,86.833 64.579,87.651 63.083 C 87.952 62.533,88.275 61.990,88.370 61.875 C 88.492 61.726,88.474 61.667,88.304 61.667 C 88.174 61.667,87.976 61.917,87.866 62.223 M17.313 61.917 C 17.301 61.962,17.282 62.069,17.271 62.153 C 17.259 62.237,17.194 62.362,17.125 62.431 C 17.056 62.499,17.000 62.746,17.000 62.978 C 17.000 63.595,17.286 63.206,17.383 62.458 C 17.448 61.954,17.398 61.573,17.313 61.917 M332.440 62.129 C 332.396 62.200,332.423 62.668,332.499 63.170 L 332.637 64.083 332.613 63.042 C 332.587 61.970,332.576 61.909,332.440 62.129 M341.288 75.518 C 341.258 82.887,341.196 89.029,341.150 89.167 C 340.816 90.154,339.613 91.503,338.852 91.744 C 338.658 91.806,338.500 91.928,338.500 92.016 C 338.500 92.273,339.435 91.716,340.137 91.040 C 340.834 90.370,341.117 89.919,341.353 89.102 C 341.505 88.576,341.572 62.350,341.422 62.200 C 341.378 62.155,341.317 68.148,341.288 75.518 M92.915 62.665 C 93.067 62.909,93.667 63.203,93.667 63.033 C 93.667 62.952,93.474 62.799,93.239 62.692 C 92.995 62.581,92.856 62.569,92.915 62.665 M229.800 62.867 C 229.910 62.977,230.002 63.183,230.004 63.325 C 230.007 63.578,230.656 64.533,230.663 64.296 C 230.671 64.029,229.922 62.667,229.767 62.667 C 229.674 62.667,229.689 62.755,229.800 62.867 M93.839 63.130 C 93.842 63.196,94.558 63.637,95.431 64.109 C 96.303 64.582,96.991 64.889,96.958 64.791 C 96.926 64.693,96.640 64.471,96.324 64.297 C 94.147 63.097,93.831 62.949,93.839 63.130 M281.497 76.183 C 281.435 86.138,281.369 89.173,281.210 89.365 C 281.096 89.502,281.039 89.650,281.084 89.695 C 281.242 89.853,279.959 91.176,279.236 91.600 C 278.317 92.139,278.273 92.289,279.168 91.833 C 279.904 91.457,280.744 90.686,281.253 89.917 C 281.583 89.418,281.805 75.112,281.628 65.833 C 281.600 64.412,281.542 69.070,281.497 76.183 M209.170 64.097 C 209.343 64.867,209.582 65.094,209.441 64.354 C 209.382 64.045,209.333 63.726,209.333 63.646 C 209.333 63.566,209.266 63.500,209.184 63.500 C 209.099 63.500,209.093 63.757,209.170 64.097 M17.045 64.322 C 17.058 64.499,17.129 64.607,17.201 64.562 C 17.386 64.448,17.367 64.000,17.177 64.000 C 17.091 64.000,17.032 64.145,17.045 64.322 M53.167 64.435 C 52.938 64.663,52.487 65.013,52.167 65.212 C 51.846 65.410,50.814 66.157,49.873 66.870 C 48.932 67.583,48.096 68.167,48.016 68.167 C 47.935 68.167,47.825 68.280,47.772 68.419 C 47.641 68.761,48.393 68.369,49.034 67.761 C 49.282 67.526,49.526 67.333,49.576 67.333 C 49.771 67.333,51.333 66.126,51.333 65.975 C 51.333 65.886,51.409 65.860,51.501 65.917 C 51.593 65.974,51.714 65.904,51.769 65.761 C 51.824 65.617,51.959 65.500,52.070 65.500 C 52.181 65.500,52.487 65.275,52.750 65.000 C 53.013 64.725,53.327 64.500,53.448 64.500 C 53.568 64.500,53.667 64.387,53.667 64.250 C 53.667 63.936,53.668 63.936,53.167 64.435 M89.279 64.149 C 89.112 64.212,88.976 64.335,88.976 64.423 C 88.977 64.644,87.968 66.404,87.801 66.472 C 87.727 66.503,87.667 66.595,87.667 66.677 C 87.667 66.760,87.402 67.241,87.078 67.747 C 86.755 68.253,86.548 68.664,86.620 68.661 C 86.691 68.657,86.944 68.338,87.181 67.952 C 89.583 64.042,89.567 64.062,90.000 64.583 C 90.114 64.721,90.311 64.833,90.437 64.833 C 90.563 64.833,90.667 64.894,90.667 64.968 C 90.667 65.042,90.985 65.242,91.375 65.412 C 91.765 65.582,92.344 65.934,92.663 66.194 C 92.982 66.454,93.319 66.667,93.413 66.667 C 93.507 66.667,93.808 66.862,94.083 67.099 C 94.358 67.337,94.805 67.647,95.075 67.787 C 95.346 67.928,95.670 68.146,95.795 68.272 C 95.921 68.397,96.088 68.500,96.167 68.500 C 96.245 68.500,96.423 68.613,96.561 68.751 C 96.699 68.889,96.851 68.940,96.899 68.863 C 96.946 68.785,96.566 68.466,96.053 68.153 C 95.540 67.840,94.981 67.452,94.810 67.292 C 94.640 67.131,94.500 67.038,94.500 67.085 C 94.500 67.170,92.659 66.005,92.500 65.820 C 92.454 65.767,92.060 65.547,91.625 65.332 C 91.190 65.117,90.833 64.888,90.833 64.823 C 90.833 64.759,90.702 64.662,90.542 64.609 C 90.381 64.556,90.100 64.405,89.917 64.273 C 89.727 64.137,89.452 64.084,89.279 64.149 M173.557 65.792 C 173.378 67.649,173.440 71.763,173.656 72.417 C 173.790 72.821,173.800 72.758,173.710 72.083 C 173.555 70.914,173.614 66.260,173.798 65.208 C 173.882 64.727,173.893 64.333,173.823 64.333 C 173.754 64.333,173.634 64.990,173.557 65.792 M362.732 64.571 C 362.681 64.702,362.668 64.983,362.702 65.196 C 362.748 65.481,362.787 65.418,362.849 64.958 C 362.936 64.311,362.890 64.159,362.732 64.571 M332.536 76.369 C 332.504 86.954,332.531 88.413,332.767 89.119 C 333.046 89.953,333.798 91.091,333.962 90.927 C 334.014 90.875,333.906 90.664,333.723 90.458 C 332.724 89.340,332.754 89.689,332.707 78.500 C 332.684 72.862,332.644 67.387,332.618 66.333 C 332.593 65.279,332.556 69.795,332.536 76.369 M17.000 65.064 C 17.000 65.201,17.075 65.360,17.167 65.417 C 17.258 65.473,17.333 65.407,17.333 65.270 C 17.333 65.132,17.258 64.973,17.167 64.917 C 17.075 64.860,17.000 64.926,17.000 65.064 M97.500 65.175 C 98.126 65.678,98.500 65.869,98.500 65.686 C 98.500 65.516,97.475 64.831,97.230 64.837 C 97.149 64.839,97.271 64.991,97.500 65.175 M247.250 64.962 C 247.441 65.166,250.670 66.053,250.789 65.934 C 250.832 65.891,250.541 65.771,250.142 65.669 C 249.137 65.410,247.738 65.015,247.381 64.889 C 247.174 64.816,247.134 64.839,247.250 64.962 M231.236 65.386 C 231.696 66.141,233.167 67.821,233.167 67.591 C 233.167 67.543,233.298 67.613,233.458 67.748 C 234.185 68.357,235.914 69.474,235.994 69.386 C 236.043 69.332,235.988 69.254,235.872 69.212 C 235.756 69.171,235.568 69.048,235.455 68.940 C 235.342 68.832,234.869 68.501,234.404 68.206 C 233.474 67.616,232.587 66.813,231.598 65.667 C 231.242 65.254,231.079 65.128,231.236 65.386 M57.495 65.949 C 57.024 66.272,56.814 66.536,56.935 66.657 C 56.981 66.703,57.070 66.665,57.134 66.573 C 57.198 66.481,57.466 66.239,57.731 66.036 C 58.292 65.605,58.101 65.534,57.495 65.949 M98.667 65.794 C 98.667 65.885,98.892 66.053,99.167 66.167 C 99.442 66.281,99.667 66.440,99.667 66.520 C 99.667 66.601,99.761 66.667,99.877 66.667 C 99.992 66.667,100.278 66.835,100.512 67.042 C 101.067 67.531,102.487 68.307,102.208 67.968 C 102.093 67.828,101.424 67.359,100.721 66.926 C 100.019 66.492,99.269 66.023,99.055 65.883 C 98.842 65.743,98.667 65.703,98.667 65.794 M209.732 67.208 C 209.742 68.010,209.806 68.666,209.875 68.666 C 210.036 68.667,210.019 67.277,209.848 66.417 C 209.743 65.896,209.718 66.069,209.732 67.208 M182.000 66.444 C 182.000 66.946,182.142 66.895,182.246 66.356 C 182.283 66.160,182.244 66.000,182.157 66.000 C 182.071 66.000,182.000 66.200,182.000 66.444 M85.324 66.518 C 85.212 66.727,84.946 67.086,84.733 67.316 C 84.520 67.546,84.381 67.770,84.424 67.813 C 84.468 67.857,84.635 67.748,84.795 67.571 C 85.241 67.079,85.703 66.314,85.610 66.221 C 85.564 66.176,85.436 66.309,85.324 66.518 M252.333 66.480 C 252.333 66.582,252.390 66.672,252.458 66.679 C 252.859 66.720,253.249 66.857,254.592 67.426 C 255.412 67.774,256.458 68.295,256.917 68.583 C 257.375 68.872,257.965 69.241,258.227 69.404 C 258.951 69.851,260.136 71.000,260.680 71.779 C 260.947 72.162,261.271 72.580,261.400 72.709 C 262.393 73.702,263.083 76.464,263.083 79.442 C 263.083 80.395,263.148 81.095,263.232 81.043 C 263.701 80.753,263.009 75.282,262.344 74.015 C 262.171 73.686,261.982 73.304,261.925 73.167 C 261.296 71.663,257.217 67.894,256.468 68.125 C 256.394 68.148,256.333 68.092,256.333 68.000 C 256.333 67.908,256.202 67.833,256.042 67.832 C 255.881 67.832,255.530 67.686,255.260 67.508 C 254.991 67.331,254.710 67.223,254.635 67.269 C 254.561 67.315,254.500 67.261,254.500 67.149 C 254.500 67.036,254.456 66.989,254.401 67.043 C 254.347 67.097,253.972 67.000,253.568 66.827 C 253.164 66.654,252.833 66.556,252.833 66.610 C 252.833 66.663,252.721 66.614,252.583 66.500 C 252.411 66.357,252.333 66.350,252.333 66.480 M362.691 77.083 C 362.641 87.955,362.635 88.151,362.303 89.167 C 362.199 89.487,362.126 89.770,362.142 89.794 C 362.397 90.179,359.797 91.994,358.967 92.012 C 358.523 92.021,358.481 92.049,358.750 92.154 C 359.704 92.528,361.720 91.110,362.453 89.549 C 362.748 88.920,362.964 75.594,362.792 68.583 C 362.763 67.392,362.717 71.217,362.691 77.083 M55.314 67.550 C 54.708 68.027,54.045 68.529,53.841 68.667 C 53.636 68.804,53.314 69.048,53.126 69.208 C 52.937 69.369,52.688 69.500,52.572 69.500 C 52.456 69.500,52.336 69.562,52.306 69.639 C 52.239 69.805,50.601 70.895,49.425 71.556 C 48.962 71.816,48.396 72.152,48.167 72.302 C 47.938 72.452,47.453 72.736,47.090 72.934 C 46.727 73.131,46.398 73.395,46.358 73.521 C 46.304 73.688,46.370 73.677,46.601 73.479 C 46.774 73.329,47.442 72.930,48.083 72.591 C 49.565 71.808,50.332 71.338,50.740 70.963 C 50.917 70.800,51.161 70.667,51.281 70.667 C 51.402 70.667,51.500 70.592,51.500 70.500 C 51.500 70.408,51.573 70.333,51.662 70.333 C 51.751 70.333,52.557 69.804,53.454 69.157 C 54.350 68.511,55.399 67.779,55.784 67.532 C 56.422 67.124,56.834 66.654,56.536 66.675 C 56.471 66.679,55.921 67.073,55.314 67.550 M181.887 68.084 C 181.870 68.405,181.911 68.667,181.978 68.667 C 182.044 68.667,182.116 68.404,182.138 68.083 C 182.159 67.762,182.119 67.500,182.047 67.501 C 181.975 67.501,181.903 67.764,181.887 68.084 M17.267 68.200 C 17.319 68.503,17.430 68.967,17.514 69.233 C 17.598 69.499,17.667 69.884,17.667 70.088 C 17.667 70.292,17.776 70.550,17.909 70.660 C 18.101 70.820,18.084 70.627,17.826 69.723 C 17.647 69.097,17.500 68.420,17.500 68.219 C 17.500 68.018,17.426 67.807,17.336 67.752 C 17.234 67.689,17.208 67.859,17.267 68.200 M83.712 68.708 C 83.431 69.098,83.057 69.581,82.882 69.781 C 82.706 69.982,82.417 70.349,82.240 70.598 C 82.062 70.846,81.688 71.282,81.409 71.566 C 80.324 72.670,77.951 75.395,78.418 75.000 C 79.098 74.425,79.473 74.035,80.949 72.365 C 81.653 71.568,82.328 70.857,82.448 70.783 C 82.568 70.710,82.667 70.583,82.667 70.500 C 82.667 70.418,82.835 70.168,83.042 69.945 C 83.656 69.281,84.532 68.000,84.372 68.000 C 84.290 68.000,83.993 68.319,83.712 68.708 M102.647 68.393 C 102.750 68.517,103.172 68.832,103.584 69.093 C 103.996 69.353,104.333 69.627,104.333 69.700 C 104.333 69.773,104.435 69.833,104.559 69.833 C 104.683 69.833,104.983 70.017,105.226 70.242 C 105.468 70.467,105.667 70.592,105.667 70.521 C 105.667 70.329,105.057 69.819,103.784 68.945 C 102.617 68.143,102.321 68.000,102.647 68.393 M46.492 69.279 C 45.992 69.616,45.159 70.178,44.640 70.529 C 44.121 70.880,43.615 71.167,43.515 71.167 C 43.415 71.167,43.333 71.242,43.333 71.333 C 43.333 71.425,43.253 71.500,43.155 71.500 C 43.057 71.500,42.864 71.612,42.726 71.750 C 42.504 71.972,42.505 72.000,42.738 72.000 C 42.882 72.000,43.000 71.938,43.000 71.861 C 43.000 71.785,43.206 71.618,43.458 71.489 C 43.923 71.252,44.847 70.656,45.000 70.496 C 45.046 70.448,45.520 70.148,46.053 69.829 C 46.896 69.326,47.703 68.667,47.476 68.667 C 47.435 68.667,46.992 68.942,46.492 69.279 M85.683 69.667 C 85.386 70.125,85.073 70.500,84.988 70.500 C 84.903 70.500,84.852 70.568,84.875 70.651 C 85.094 71.448,77.080 79.497,73.000 82.578 C 72.404 83.028,71.654 83.596,71.333 83.839 C 71.012 84.083,70.506 84.408,70.208 84.562 C 69.816 84.765,69.667 84.957,69.667 85.259 C 69.667 85.645,70.575 87.667,70.748 87.667 C 70.843 87.667,70.637 87.142,70.179 86.216 C 69.757 85.362,69.744 85.051,70.125 84.930 C 70.285 84.879,70.604 84.667,70.833 84.460 C 71.063 84.253,71.681 83.789,72.208 83.430 C 72.735 83.072,73.167 82.715,73.167 82.639 C 73.167 82.563,73.245 82.500,73.340 82.500 C 73.436 82.500,73.605 82.426,73.715 82.335 C 78.105 78.734,80.750 76.169,83.417 72.928 C 83.783 72.482,84.162 72.035,84.258 71.934 C 84.355 71.833,84.762 71.300,85.163 70.750 C 85.565 70.200,85.944 69.712,86.005 69.667 C 86.218 69.508,86.511 68.833,86.367 68.833 C 86.288 68.833,85.980 69.208,85.683 69.667 M209.819 68.958 C 209.810 69.027,209.782 69.649,209.755 70.340 C 209.666 72.624,208.781 75.646,207.549 77.875 C 206.791 79.247,206.435 79.713,205.042 81.154 C 204.560 81.651,204.167 82.127,204.167 82.211 C 204.167 82.609,206.884 79.587,207.288 78.740 C 207.439 78.425,207.627 78.167,207.707 78.167 C 207.787 78.167,207.807 78.092,207.750 78.000 C 207.693 77.908,207.726 77.833,207.823 77.833 C 207.921 77.833,207.984 77.777,207.965 77.708 C 207.945 77.640,208.037 77.396,208.168 77.167 C 209.124 75.498,210.541 68.833,209.940 68.833 C 209.881 68.833,209.827 68.890,209.819 68.958 M97.168 69.105 C 97.169 69.185,97.450 69.419,97.793 69.625 C 98.136 69.832,98.585 70.122,98.792 70.271 C 98.998 70.419,99.167 70.470,99.167 70.384 C 99.167 70.298,98.885 70.063,98.542 69.861 C 98.198 69.658,97.748 69.373,97.542 69.226 C 97.335 69.079,97.167 69.025,97.168 69.105 M181.901 69.932 C 181.893 70.245,181.951 70.500,182.029 70.500 C 182.180 70.500,182.157 69.514,182.005 69.420 C 181.956 69.389,181.909 69.620,181.901 69.932 M236.174 69.458 C 236.183 69.608,238.334 70.664,238.331 70.518 C 238.329 70.416,236.438 69.333,236.262 69.333 C 236.209 69.333,236.170 69.390,236.174 69.458 M99.333 70.661 C 99.333 70.761,99.465 70.893,99.625 70.954 C 99.785 71.015,100.016 71.163,100.137 71.283 C 100.259 71.403,100.709 71.740,101.137 72.031 C 101.566 72.322,101.977 72.659,102.050 72.780 C 102.123 72.901,102.292 73.000,102.425 73.000 C 102.558 73.000,102.667 73.064,102.667 73.143 C 102.667 73.221,103.098 73.588,103.625 73.958 C 104.152 74.329,104.780 74.808,105.020 75.024 C 105.260 75.240,105.668 75.567,105.926 75.750 C 106.184 75.933,106.588 76.251,106.823 76.456 C 107.333 76.901,107.250 76.833,108.917 78.164 C 109.650 78.749,110.412 79.421,110.610 79.656 C 110.808 79.891,111.021 80.033,111.082 79.972 C 111.257 79.799,109.977 78.681,106.016 75.547 C 105.412 75.068,104.842 74.616,104.750 74.543 C 104.136 74.052,100.316 71.162,99.875 70.855 C 99.577 70.647,99.333 70.560,99.333 70.661 M105.833 70.618 C 105.833 70.706,106.018 70.876,106.244 70.997 C 106.470 71.118,106.608 71.299,106.551 71.400 C 106.494 71.501,106.507 71.529,106.581 71.462 C 106.701 71.354,107.211 71.720,108.273 72.678 C 108.470 72.855,108.705 73.000,108.796 73.000 C 108.887 73.000,109.085 73.188,109.235 73.417 C 109.385 73.646,109.573 73.833,109.652 73.833 C 109.731 73.833,110.138 74.170,110.556 74.582 C 110.973 74.994,111.355 75.267,111.403 75.188 C 111.452 75.110,111.175 74.780,110.787 74.457 C 110.400 74.133,109.821 73.632,109.500 73.345 C 108.975 72.875,106.952 71.271,106.148 70.688 C 105.975 70.562,105.833 70.531,105.833 70.618 M238.713 70.602 C 238.770 70.659,239.319 70.880,239.934 71.095 C 240.550 71.310,240.971 71.405,240.871 71.305 C 240.772 71.205,240.291 70.986,239.803 70.817 C 238.874 70.496,238.542 70.431,238.713 70.602 M18.012 71.083 C 17.996 71.317,18.566 72.790,18.735 72.951 C 18.812 73.024,18.817 72.896,18.746 72.667 C 18.549 72.026,18.025 70.896,18.012 71.083 M182.000 71.417 C 182.000 71.646,182.065 71.833,182.144 71.833 C 182.223 71.833,182.251 71.646,182.207 71.417 C 182.164 71.188,182.099 71.000,182.064 71.000 C 182.029 71.000,182.000 71.188,182.000 71.417 M241.167 71.460 C 241.167 71.593,243.324 72.268,243.542 72.204 C 243.610 72.183,243.667 72.239,243.667 72.328 C 243.667 72.417,243.789 72.443,243.939 72.385 C 244.113 72.318,243.710 72.114,242.814 71.817 C 241.258 71.299,241.167 71.280,241.167 71.460 M41.708 72.353 C 41.410 72.543,41.167 72.771,41.167 72.858 C 41.167 72.946,41.429 72.817,41.750 72.572 C 42.257 72.185,42.440 71.993,42.292 72.003 C 42.269 72.004,42.006 72.162,41.708 72.353 M182.305 73.083 C 182.447 73.679,182.609 74.167,182.665 74.167 C 182.721 74.167,182.650 73.680,182.508 73.084 C 182.366 72.489,182.204 72.001,182.148 72.001 C 182.091 72.000,182.162 72.487,182.305 73.083 M244.333 72.403 C 244.333 72.500,245.910 73.015,246.486 73.106 C 246.745 73.147,247.360 73.327,247.852 73.507 C 248.343 73.686,248.859 73.829,248.998 73.825 C 249.136 73.820,248.762 73.633,248.167 73.409 C 247.098 73.007,246.734 72.904,245.750 72.725 C 245.475 72.675,245.124 72.566,244.969 72.483 C 244.676 72.327,244.333 72.283,244.333 72.403 M40.007 73.361 C 39.800 73.529,39.526 73.667,39.398 73.667 C 39.271 73.667,39.167 73.723,39.167 73.793 C 39.167 73.862,38.942 74.018,38.667 74.140 C 38.392 74.262,38.167 74.439,38.167 74.534 C 38.167 74.650,38.236 74.652,38.375 74.542 C 38.490 74.452,39.033 74.133,39.583 73.835 C 40.729 73.214,40.938 73.056,40.614 73.056 C 40.488 73.056,40.215 73.193,40.007 73.361 M19.004 73.615 C 19.006 73.689,19.154 73.938,19.333 74.167 C 19.513 74.396,19.661 74.636,19.663 74.701 C 19.671 74.949,20.554 76.114,21.244 76.786 C 22.176 77.694,25.000 78.986,25.000 78.504 C 25.000 78.434,24.747 78.336,24.438 78.286 C 22.887 78.034,20.886 76.424,19.830 74.577 C 19.339 73.720,18.996 73.320,19.004 73.615 M45.730 73.670 C 45.636 73.764,44.413 74.405,43.010 75.095 C 41.608 75.785,40.503 76.392,40.555 76.444 C 40.667 76.556,44.529 74.679,44.706 74.425 C 44.773 74.329,44.829 74.307,44.831 74.377 C 44.833 74.500,46.167 73.685,46.167 73.561 C 46.167 73.437,45.895 73.505,45.730 73.670 M249.333 73.819 C 249.333 73.947,250.828 74.666,251.095 74.667 C 251.407 74.668,253.459 76.127,254.041 76.762 C 254.370 77.121,254.682 77.373,254.734 77.321 C 254.835 77.220,254.023 76.331,253.253 75.699 C 252.472 75.059,249.333 73.553,249.333 73.819 M173.833 74.146 C 173.833 74.747,174.361 76.667,174.526 76.667 C 174.617 76.667,174.618 76.549,174.529 76.375 C 174.387 76.096,174.241 75.495,174.055 74.417 C 173.948 73.796,173.833 73.656,173.833 74.146 M137.290 74.432 C 137.169 74.553,137.851 75.833,138.037 75.833 C 138.115 75.833,138.087 75.665,137.976 75.458 C 137.865 75.252,137.686 74.916,137.579 74.711 C 137.472 74.506,137.342 74.380,137.290 74.432 M182.972 75.435 C 183.226 76.055,183.514 76.588,183.613 76.621 C 183.711 76.654,183.605 76.291,183.377 75.815 C 183.150 75.339,182.946 74.834,182.925 74.692 C 182.905 74.551,182.803 74.406,182.699 74.372 C 182.596 74.337,182.719 74.816,182.972 75.435 M36.500 75.189 C 35.813 75.557,34.731 76.059,34.097 76.304 C 33.463 76.549,32.911 76.849,32.871 76.970 C 32.824 77.110,33.102 77.036,33.629 76.769 C 34.086 76.538,34.506 76.395,34.563 76.452 C 34.620 76.509,34.667 76.481,34.667 76.389 C 34.667 76.297,34.760 76.220,34.875 76.216 C 34.990 76.213,35.547 75.945,36.113 75.621 C 36.679 75.297,37.168 75.057,37.199 75.088 C 37.230 75.119,37.441 75.001,37.669 74.826 C 38.331 74.317,37.850 74.467,36.500 75.189 M112.504 76.350 C 115.678 79.341,118.583 82.297,120.841 84.832 C 122.684 86.901,122.669 86.886,122.765 86.791 C 122.972 86.583,112.811 76.000,112.404 76.000 C 112.317 76.000,112.153 75.850,112.039 75.667 C 111.924 75.483,111.739 75.333,111.628 75.333 C 111.517 75.333,111.911 75.791,112.504 76.350 M76.750 76.327 C 75.790 77.281,72.694 79.911,71.833 80.504 C 71.512 80.725,71.151 81.002,71.030 81.120 C 70.909 81.237,70.740 81.333,70.655 81.333 C 70.570 81.333,70.500 81.411,70.500 81.506 C 70.500 81.754,70.956 81.483,72.197 80.497 C 72.776 80.037,73.462 79.493,73.721 79.289 C 75.360 77.993,78.003 75.511,77.750 75.504 C 77.658 75.502,77.208 75.872,76.750 76.327 M138.000 76.061 C 138.000 76.094,138.337 76.801,138.750 77.631 C 139.162 78.461,139.500 79.219,139.500 79.315 C 139.500 79.560,140.295 81.333,140.405 81.333 C 140.498 81.333,140.292 80.786,139.281 78.333 C 138.432 76.276,138.000 75.509,138.000 76.061 M39.167 76.934 C 38.662 77.171,38.071 77.435,37.852 77.521 C 37.633 77.606,37.491 77.713,37.536 77.758 C 37.628 77.850,39.999 76.880,40.242 76.650 C 40.527 76.380,40.113 76.489,39.167 76.934 M174.551 77.083 C 174.795 77.996,174.869 78.167,175.021 78.167 C 175.112 78.167,175.128 78.073,175.056 77.958 C 174.985 77.844,174.903 77.602,174.875 77.420 C 174.847 77.239,174.743 77.014,174.643 76.920 C 174.516 76.800,174.489 76.848,174.551 77.083 M183.778 77.083 C 184.035 77.823,185.054 79.517,185.602 80.114 C 185.922 80.464,186.356 80.938,186.565 81.167 C 187.444 82.128,188.830 83.167,189.234 83.167 C 189.380 83.167,189.500 83.228,189.500 83.304 C 189.500 83.424,191.022 84.272,191.122 84.206 C 191.143 84.193,191.422 84.290,191.742 84.424 C 192.061 84.557,192.456 84.661,192.620 84.655 C 192.910 84.643,191.834 84.193,191.329 84.114 C 191.189 84.092,190.681 83.832,190.201 83.537 C 189.721 83.242,189.273 83.000,189.206 83.000 C 189.138 83.000,188.865 82.812,188.599 82.583 C 188.333 82.354,188.066 82.167,188.007 82.167 C 187.800 82.167,185.996 80.320,185.561 79.663 C 185.320 79.299,185.064 79.000,184.992 79.000 C 184.920 79.000,184.739 78.681,184.589 78.292 C 184.306 77.553,183.551 76.428,183.778 77.083 M31.833 77.271 L 31.417 77.514 31.833 77.403 C 32.298 77.279,32.423 77.200,32.319 77.097 C 32.281 77.059,32.062 77.137,31.833 77.271 M29.356 77.935 C 28.623 78.175,27.699 78.344,27.064 78.354 C 26.479 78.363,26.000 78.431,26.000 78.507 C 26.000 78.706,27.916 78.531,29.081 78.226 C 29.632 78.082,30.192 77.947,30.324 77.926 C 30.457 77.905,30.594 77.800,30.630 77.694 C 30.665 77.587,30.669 77.507,30.639 77.516 C 30.608 77.525,30.031 77.714,29.356 77.935 M36.500 78.128 C 36.179 78.278,35.153 78.759,34.220 79.197 C 33.287 79.635,32.474 80.074,32.413 80.172 C 32.352 80.271,32.890 80.053,33.609 79.688 C 34.328 79.323,35.123 78.973,35.375 78.910 C 35.627 78.848,35.833 78.730,35.833 78.649 C 35.833 78.567,35.965 78.500,36.125 78.499 C 36.285 78.498,36.642 78.349,36.917 78.167 C 37.516 77.769,37.307 77.750,36.500 78.128 M255.052 78.865 C 255.238 79.802,254.988 81.863,254.638 82.284 C 254.536 82.407,254.495 82.550,254.546 82.602 C 254.644 82.699,255.058 82.039,255.081 81.750 C 255.088 81.658,255.156 81.257,255.231 80.858 C 255.380 80.070,255.221 78.000,255.011 78.000 C 254.940 78.000,254.958 78.389,255.052 78.865 M175.149 79.002 C 175.477 79.735,175.748 80.100,175.577 79.578 C 175.290 78.704,175.114 78.333,174.988 78.333 C 174.912 78.333,174.984 78.634,175.149 79.002 M231.750 78.662 C 231.933 78.739,232.346 78.900,232.667 79.020 C 232.987 79.139,233.672 79.652,234.187 80.160 C 236.757 82.692,238.834 84.151,241.083 85.006 C 241.267 85.076,241.663 85.226,241.964 85.339 C 242.265 85.452,242.550 85.505,242.599 85.457 C 242.647 85.408,242.326 85.239,241.885 85.081 C 240.554 84.602,238.661 83.647,238.320 83.281 C 238.144 83.092,238.000 82.994,238.000 83.063 C 238.000 83.250,235.667 81.307,234.644 80.268 C 233.705 79.314,232.359 78.492,231.767 78.511 C 231.424 78.522,231.424 78.525,231.750 78.662 M229.417 79.026 C 227.085 80.230,226.312 83.337,227.914 85.065 C 228.140 85.308,228.308 85.537,228.287 85.573 C 228.267 85.609,228.634 86.038,229.103 86.528 C 230.076 87.543,231.500 88.853,231.500 88.734 C 231.500 88.690,231.669 88.813,231.875 89.008 C 232.081 89.203,232.545 89.515,232.906 89.700 C 233.267 89.886,233.670 90.146,233.801 90.277 C 233.932 90.408,234.079 90.477,234.127 90.429 C 234.231 90.324,233.582 89.772,233.000 89.470 C 232.020 88.961,228.337 85.723,228.361 85.391 C 228.365 85.343,228.215 85.128,228.028 84.913 C 227.213 83.976,227.078 81.757,227.773 80.732 C 228.270 79.999,228.541 79.775,229.717 79.125 C 230.674 78.596,230.415 78.510,229.417 79.026 M111.333 80.128 C 111.333 80.198,111.837 80.705,112.453 81.253 C 113.068 81.801,113.882 82.550,114.260 82.917 C 117.097 85.663,118.530 87.094,119.238 87.891 C 119.690 88.400,120.118 88.780,120.188 88.737 C 120.258 88.694,119.963 88.299,119.532 87.859 C 119.102 87.419,118.150 86.441,117.417 85.685 C 116.683 84.929,115.297 83.585,114.335 82.697 C 113.373 81.810,112.335 80.840,112.027 80.542 C 111.445 79.979,111.333 79.912,111.333 80.128 M175.667 80.140 C 175.667 80.538,176.659 82.408,177.371 83.352 C 177.620 83.683,177.787 83.991,177.742 84.036 C 177.696 84.082,177.775 84.216,177.917 84.333 C 178.059 84.451,178.207 84.516,178.246 84.477 C 178.314 84.408,177.366 82.837,177.153 82.667 C 177.096 82.621,176.769 82.021,176.426 81.333 C 175.748 79.973,175.667 79.846,175.667 80.140 M31.708 80.380 C 31.502 80.474,31.333 80.614,31.333 80.692 C 31.333 80.770,31.255 80.833,31.160 80.833 C 30.787 80.833,29.853 81.780,29.566 82.448 C 29.336 82.983,29.407 83.923,29.691 84.098 C 29.772 84.149,29.802 84.250,29.756 84.323 C 29.641 84.509,32.288 87.167,32.589 87.167 C 32.723 87.167,32.833 87.224,32.833 87.295 C 32.833 87.366,33.377 87.697,34.042 88.031 C 35.148 88.588,35.518 88.754,36.875 89.306 C 37.158 89.421,37.333 89.430,37.333 89.330 C 37.333 89.240,37.251 89.167,37.150 89.167 C 36.707 89.167,33.407 87.563,32.713 87.011 C 29.230 84.236,28.797 82.498,31.213 80.983 C 32.283 80.312,32.237 80.346,32.153 80.271 C 32.115 80.236,31.915 80.285,31.708 80.380 M69.772 81.976 C 69.618 82.146,69.231 82.426,68.913 82.597 C 68.594 82.769,68.333 82.973,68.333 83.051 C 68.333 83.228,69.437 82.562,69.998 82.047 C 70.227 81.838,70.332 81.667,70.232 81.667 C 70.133 81.667,69.926 81.806,69.772 81.976 M262.833 82.211 C 262.833 82.788,261.869 85.245,261.427 85.793 C 259.964 87.608,259.380 88.245,258.752 88.706 C 258.346 89.005,258.010 89.344,258.007 89.458 C 258.003 89.573,257.868 89.667,257.707 89.667 C 257.545 89.667,257.209 89.856,256.960 90.087 C 256.711 90.318,256.466 90.501,256.415 90.494 C 256.365 90.486,255.932 90.662,255.453 90.884 C 254.294 91.422,253.439 91.753,252.333 92.093 C 251.829 92.248,251.349 92.437,251.266 92.513 C 251.183 92.589,251.577 92.512,252.141 92.341 C 252.705 92.170,253.167 92.063,253.167 92.102 C 253.167 92.141,253.464 92.022,253.827 91.837 C 254.190 91.652,254.602 91.500,254.743 91.500 C 254.885 91.500,255.000 91.413,255.000 91.306 C 255.000 91.199,255.045 91.156,255.100 91.211 C 255.208 91.319,256.914 90.450,257.346 90.066 C 257.491 89.938,257.665 89.833,257.733 89.833 C 258.227 89.833,261.955 85.776,262.065 85.118 C 262.084 85.007,262.187 84.757,262.295 84.562 C 262.817 83.613,263.268 81.833,262.985 81.833 C 262.902 81.833,262.833 82.003,262.833 82.211 M203.410 82.585 C 203.139 82.807,202.992 82.988,203.083 82.988 C 203.295 82.989,204.071 82.349,203.975 82.253 C 203.936 82.214,203.682 82.363,203.410 82.585 M140.706 82.875 C 140.803 83.173,140.945 83.567,141.021 83.750 C 141.097 83.933,141.193 84.383,141.235 84.750 C 141.277 85.117,141.422 85.887,141.558 86.462 C 141.861 87.742,141.833 87.570,141.833 88.177 C 141.833 88.479,141.902 88.644,142.003 88.582 C 142.096 88.524,142.141 88.426,142.103 88.363 C 142.064 88.301,141.987 87.950,141.932 87.583 C 141.876 87.217,141.748 86.510,141.647 86.012 C 141.547 85.515,141.446 84.946,141.425 84.747 C 141.358 84.139,140.778 82.333,140.650 82.333 C 140.583 82.333,140.609 82.577,140.706 82.875 M254.167 83.089 C 254.167 83.230,253.904 83.499,253.583 83.689 C 253.262 83.878,253.000 84.090,253.000 84.160 C 253.000 84.327,251.191 85.137,250.517 85.272 C 250.229 85.329,249.948 85.450,249.892 85.539 C 249.834 85.634,249.923 85.664,250.104 85.612 C 250.276 85.562,250.754 85.426,251.167 85.310 C 251.579 85.194,251.954 85.058,252.000 85.007 C 252.046 84.955,252.367 84.765,252.714 84.583 C 253.540 84.149,254.847 82.833,254.451 82.833 C 254.295 82.833,254.167 82.948,254.167 83.089 M201.875 83.456 C 201.394 83.704,201.000 83.967,201.000 84.040 C 201.000 84.188,202.064 83.670,202.583 83.268 C 203.071 82.891,202.863 82.946,201.875 83.456 M67.579 83.480 C 67.306 83.642,66.465 84.140,65.708 84.587 C 64.952 85.034,64.333 85.461,64.333 85.537 C 64.333 85.656,65.100 85.247,65.333 85.004 C 65.379 84.956,65.679 84.776,66.000 84.604 C 67.970 83.546,68.256 83.367,68.148 83.260 C 68.108 83.219,67.852 83.318,67.579 83.480 M199.917 84.271 C 199.550 84.407,199.041 84.526,198.786 84.535 C 198.530 84.544,198.275 84.626,198.219 84.718 C 198.065 84.967,199.435 84.711,200.238 84.341 C 201.050 83.967,200.852 83.924,199.917 84.271 M193.000 84.689 C 193.000 84.768,193.094 84.843,193.208 84.854 C 193.323 84.865,193.679 84.900,194.000 84.932 C 195.143 85.045,196.755 85.097,197.042 85.029 C 197.745 84.865,197.221 84.752,195.875 84.779 C 195.073 84.795,194.098 84.749,193.708 84.676 C 193.319 84.604,193.000 84.610,193.000 84.689 M178.333 84.801 C 178.333 84.874,178.611 85.193,178.951 85.509 C 179.291 85.825,179.460 85.933,179.326 85.750 C 179.193 85.567,178.990 85.357,178.875 85.283 C 178.760 85.210,178.667 85.041,178.667 84.908 C 178.667 84.775,178.592 84.667,178.500 84.667 C 178.408 84.667,178.333 84.727,178.333 84.801 M243.605 85.632 C 243.560 85.705,243.668 85.775,243.845 85.788 C 244.022 85.802,244.167 85.742,244.167 85.656 C 244.167 85.467,243.719 85.447,243.605 85.632 M63.000 86.083 C 62.587 86.304,62.354 86.488,62.480 86.492 C 62.708 86.500,63.833 85.871,63.833 85.736 C 63.833 85.638,63.830 85.639,63.000 86.083 M244.333 85.731 C 244.333 85.882,244.983 85.947,245.190 85.815 C 245.344 85.718,245.243 85.671,244.875 85.669 C 244.577 85.668,244.333 85.695,244.333 85.731 M246.667 85.833 L 245.417 85.940 246.708 85.970 C 247.478 85.988,248.000 85.933,248.000 85.833 C 248.000 85.742,247.981 85.680,247.958 85.697 C 247.935 85.713,247.354 85.775,246.667 85.833 M248.167 85.819 C 248.167 85.988,248.593 85.963,248.773 85.783 C 248.837 85.719,248.726 85.667,248.528 85.667 C 248.329 85.667,248.167 85.735,248.167 85.819 M209.284 85.958 C 209.245 86.027,209.268 86.458,209.335 86.917 L 209.455 87.750 209.478 86.792 C 209.499 85.891,209.446 85.666,209.284 85.958 M179.942 86.718 C 180.203 87.021,180.782 87.564,181.229 87.926 C 181.675 88.287,182.238 88.755,182.479 88.965 C 182.720 89.175,183.179 89.508,183.500 89.706 C 183.821 89.904,184.121 90.113,184.167 90.171 C 184.213 90.229,184.625 90.458,185.083 90.680 C 185.542 90.902,186.016 91.177,186.137 91.292 C 186.258 91.406,186.487 91.500,186.645 91.500 C 186.804 91.500,187.005 91.561,187.092 91.635 C 187.372 91.874,188.167 92.164,188.167 92.027 C 188.167 91.864,187.079 91.333,186.744 91.333 C 186.610 91.333,186.500 91.246,186.500 91.139 C 186.500 91.032,186.455 90.989,186.401 91.044 C 186.346 91.099,185.820 90.849,185.231 90.488 C 184.642 90.128,184.094 89.833,184.013 89.833 C 183.931 89.833,183.567 89.590,183.203 89.292 C 182.839 88.994,182.215 88.487,181.816 88.167 C 181.417 87.846,180.783 87.265,180.407 86.875 C 179.601 86.039,179.257 85.923,179.942 86.718 M208.486 86.961 C 208.173 87.307,207.485 87.925,206.958 88.334 C 206.431 88.744,206.000 89.136,206.000 89.206 C 206.000 89.276,205.887 89.333,205.750 89.333 C 205.612 89.333,205.500 89.408,205.500 89.500 C 205.500 89.770,205.625 89.704,206.568 88.937 C 207.061 88.535,207.529 88.177,207.607 88.142 C 207.881 88.017,209.229 86.506,209.142 86.420 C 209.094 86.372,208.799 86.616,208.486 86.961 M60.417 87.259 C 59.775 87.573,59.438 87.783,59.667 87.726 C 60.242 87.582,61.833 86.872,61.833 86.759 C 61.833 86.597,61.611 86.676,60.417 87.259 M122.833 87.061 C 122.833 87.131,123.928 88.390,124.667 89.169 C 124.896 89.411,125.105 89.678,125.131 89.763 C 125.158 89.847,125.401 90.168,125.673 90.474 C 125.944 90.781,126.167 91.058,126.167 91.089 C 126.167 91.269,127.177 92.212,127.269 92.120 C 127.331 92.058,127.258 91.961,127.107 91.903 C 126.957 91.845,126.833 91.731,126.833 91.649 C 126.833 91.567,126.702 91.359,126.542 91.188 C 126.381 91.016,126.063 90.625,125.833 90.318 C 125.604 90.012,125.249 89.571,125.044 89.339 C 124.085 88.251,123.672 87.741,123.669 87.644 C 123.666 87.530,122.833 86.948,122.833 87.061 M58.833 87.824 C 58.364 88.082,57.750 88.303,56.292 88.740 C 55.490 88.981,54.833 89.241,54.833 89.318 C 54.833 89.396,55.302 89.308,55.875 89.122 C 57.768 88.508,59.167 87.949,59.167 87.807 C 59.167 87.643,59.161 87.644,58.833 87.824 M70.833 87.976 C 70.833 88.199,72.090 90.362,72.954 91.627 C 73.346 92.200,73.667 92.712,73.667 92.763 C 73.667 92.853,74.490 94.000,74.674 94.167 C 74.725 94.212,74.948 94.513,75.169 94.833 C 75.391 95.154,75.781 95.642,76.036 95.917 C 76.290 96.192,76.499 96.465,76.499 96.524 C 76.500 96.583,76.604 96.671,76.731 96.719 C 76.857 96.768,76.389 96.054,75.689 95.133 C 74.215 93.194,74.362 93.403,72.965 91.250 C 72.370 90.333,71.706 89.222,71.489 88.779 C 71.101 87.987,70.833 87.659,70.833 87.976 M209.417 88.417 C 209.626 89.785,211.844 92.567,212.322 92.061 C 212.374 92.006,212.269 91.876,212.089 91.772 C 211.065 91.181,210.121 90.039,209.723 88.908 C 209.414 88.031,209.340 87.912,209.417 88.417 M353.775 88.293 C 353.666 88.469,353.846 89.333,353.992 89.333 C 354.094 89.333,354.096 88.752,353.994 88.500 C 353.976 88.454,353.969 88.360,353.980 88.292 C 354.006 88.130,353.875 88.130,353.775 88.293 M311.041 89.262 C 310.813 90.022,309.604 91.352,308.829 91.696 C 308.185 91.980,308.185 92.201,308.828 91.977 C 309.843 91.623,311.443 89.606,311.299 88.862 C 311.269 88.708,311.154 88.887,311.041 89.262 M120.333 88.982 C 120.333 89.064,120.858 89.683,121.499 90.357 C 122.140 91.032,122.834 91.826,123.041 92.122 C 123.418 92.664,123.833 92.952,123.833 92.674 C 123.833 92.591,123.636 92.369,123.394 92.179 C 123.153 91.989,123.006 91.833,123.068 91.833 C 123.130 91.833,122.985 91.627,122.747 91.375 C 121.514 90.070,120.667 89.091,120.667 88.969 C 120.667 88.895,120.592 88.833,120.500 88.833 C 120.408 88.833,120.333 88.900,120.333 88.982 M53.667 89.583 C 53.288 89.729,53.200 89.810,53.417 89.813 C 53.600 89.816,53.975 89.715,54.250 89.589 C 54.895 89.294,54.430 89.289,53.667 89.583 M38.122 89.688 C 38.225 89.792,38.489 89.896,38.709 89.920 C 38.928 89.944,39.690 90.094,40.401 90.252 C 41.393 90.472,41.739 90.494,41.889 90.343 C 42.037 90.193,42.024 90.169,41.833 90.240 C 41.696 90.291,40.985 90.189,40.253 90.013 C 39.522 89.838,38.866 89.730,38.795 89.774 C 38.724 89.817,38.667 89.774,38.667 89.677 C 38.667 89.579,38.502 89.500,38.300 89.500 C 38.027 89.500,37.982 89.548,38.122 89.688 M273.005 89.602 C 272.998 89.850,273.981 91.068,274.500 91.454 C 275.060 91.870,275.833 92.194,275.833 92.013 C 275.833 91.932,275.623 91.793,275.366 91.703 C 274.933 91.552,273.826 90.528,273.255 89.750 C 273.121 89.567,273.008 89.500,273.005 89.602 M302.833 89.601 C 302.833 89.768,303.287 90.414,303.917 91.142 C 304.280 91.562,305.500 92.255,305.500 92.041 C 305.500 91.969,305.236 91.767,304.914 91.594 C 304.592 91.420,304.054 90.934,303.719 90.514 C 302.860 89.437,302.833 89.409,302.833 89.601 M354.104 89.708 C 354.422 90.242,354.909 90.833,355.030 90.833 C 355.202 90.833,354.294 89.515,354.115 89.506 C 354.041 89.503,354.036 89.594,354.104 89.708 M52.250 89.833 C 52.040 89.924,52.009 89.977,52.167 89.977 C 52.304 89.977,52.567 89.912,52.750 89.833 C 52.960 89.743,52.991 89.690,52.833 89.690 C 52.696 89.690,52.433 89.755,52.250 89.833 M204.817 89.973 C 204.355 90.332,201.622 91.667,201.350 91.667 C 201.249 91.667,201.167 91.750,201.167 91.851 C 201.167 91.953,201.066 91.997,200.943 91.950 C 200.820 91.903,200.614 91.931,200.485 92.013 C 200.309 92.124,200.351 92.162,200.651 92.164 C 201.340 92.168,205.543 89.987,205.305 89.749 C 205.257 89.701,205.037 89.802,204.817 89.973 M50.887 90.060 C 49.672 90.327,49.637 90.474,50.834 90.282 C 51.384 90.193,51.833 90.056,51.833 89.977 C 51.833 89.898,51.815 89.842,51.792 89.852 C 51.769 89.862,51.361 89.956,50.887 90.060 M48.888 90.380 C 48.839 90.458,48.845 90.567,48.900 90.622 C 48.955 90.677,49.000 90.637,49.000 90.533 C 49.000 90.429,49.105 90.384,49.233 90.433 C 49.361 90.482,49.506 90.459,49.554 90.380 C 49.603 90.302,49.492 90.238,49.309 90.238 C 49.126 90.238,48.936 90.302,48.888 90.380 M234.336 90.294 C 234.333 90.508,235.899 91.278,236.591 91.404 C 236.800 91.442,237.122 91.554,237.308 91.653 C 237.493 91.752,237.743 91.832,237.864 91.831 C 238.256 91.826,237.641 91.514,236.675 91.227 C 236.176 91.079,235.519 90.818,235.217 90.648 C 234.914 90.478,234.666 90.394,234.664 90.461 C 234.663 90.528,234.589 90.471,234.500 90.333 C 234.390 90.163,234.338 90.151,234.336 90.294 M42.167 90.398 C 42.167 90.433,42.392 90.495,42.667 90.536 C 42.942 90.576,43.167 90.547,43.167 90.471 C 43.167 90.395,42.942 90.333,42.667 90.333 C 42.392 90.333,42.167 90.362,42.167 90.398 M43.748 90.503 C 43.705 90.572,43.859 90.665,44.089 90.709 C 44.320 90.753,44.543 90.732,44.585 90.663 C 44.628 90.594,44.474 90.502,44.244 90.458 C 44.014 90.414,43.791 90.434,43.748 90.503 M47.117 90.438 C 47.060 90.496,46.508 90.532,45.892 90.519 C 45.276 90.506,44.810 90.533,44.857 90.579 C 44.934 90.656,46.515 90.694,47.201 90.635 C 47.357 90.622,47.447 90.549,47.399 90.472 C 47.297 90.306,47.255 90.301,47.117 90.438 M47.833 90.542 C 47.833 90.610,48.021 90.667,48.250 90.667 C 48.479 90.667,48.667 90.610,48.667 90.542 C 48.667 90.473,48.479 90.417,48.250 90.417 C 48.021 90.417,47.833 90.473,47.833 90.542 M142.011 91.431 C 142.019 92.079,142.052 92.173,142.169 91.882 C 142.250 91.680,142.286 91.351,142.247 91.152 C 142.116 90.472,142.000 90.609,142.011 91.431 M334.168 91.099 C 334.171 91.472,336.370 92.518,336.622 92.267 C 336.773 92.116,336.637 92.040,336.065 91.950 C 335.487 91.860,334.898 91.586,334.458 91.203 C 334.298 91.063,334.167 91.016,334.168 91.099 M355.921 91.724 C 356.589 92.179,357.469 92.364,358.000 92.160 C 358.046 92.143,357.783 92.062,357.417 91.980 C 356.391 91.752,356.351 91.740,356.227 91.616 C 356.163 91.552,355.994 91.500,355.852 91.500 C 355.652 91.500,355.667 91.551,355.921 91.724 M238.259 91.819 C 238.161 91.978,238.410 92.091,239.167 92.230 C 239.396 92.272,240.063 92.421,240.649 92.561 C 241.235 92.701,241.648 92.756,241.566 92.683 C 241.448 92.578,239.854 92.132,238.917 91.941 C 238.825 91.923,238.661 91.852,238.553 91.784 C 238.445 91.717,238.313 91.732,238.259 91.819 M188.375 92.042 C 188.431 92.210,190.793 92.875,191.042 92.792 C 191.116 92.767,190.534 92.550,189.748 92.311 C 188.963 92.071,188.345 91.950,188.375 92.042 M276.129 92.024 C 276.313 92.199,277.333 92.323,277.333 92.170 C 277.333 92.096,277.035 92.007,276.671 91.972 C 276.307 91.937,276.063 91.961,276.129 92.024 M277.833 91.995 C 277.419 92.102,277.418 92.103,277.792 92.202 C 277.998 92.257,278.211 92.229,278.267 92.140 C 278.410 91.908,278.307 91.873,277.833 91.995 M212.702 92.091 C 212.752 92.141,213.008 92.217,213.271 92.261 C 213.630 92.321,213.688 92.299,213.500 92.173 C 213.243 92.000,212.539 91.928,212.702 92.091 M306.500 92.200 C 306.500 92.271,306.682 92.315,306.905 92.296 C 307.127 92.278,307.276 92.208,307.235 92.142 C 307.136 91.983,306.500 92.034,306.500 92.200 M337.000 92.167 C 337.000 92.258,337.108 92.333,337.240 92.333 C 337.372 92.333,337.527 92.258,337.583 92.167 C 337.640 92.075,337.532 92.000,337.343 92.000 C 337.154 92.000,337.000 92.075,337.000 92.167 M199.640 92.338 C 199.488 92.427,199.117 92.527,198.815 92.560 C 198.513 92.593,198.238 92.703,198.204 92.804 C 198.135 93.011,199.805 92.577,200.075 92.318 C 200.287 92.115,199.999 92.129,199.640 92.338 M127.333 92.499 C 127.333 92.656,127.485 92.852,128.539 94.061 C 128.790 94.348,128.996 94.664,128.997 94.763 C 128.999 94.861,129.188 95.118,129.417 95.333 C 129.646 95.549,129.833 95.780,129.833 95.848 C 129.833 95.987,130.309 96.577,131.146 97.478 C 131.456 97.811,131.606 97.923,131.480 97.728 C 131.015 97.008,130.092 95.743,129.863 95.509 C 129.732 95.377,129.138 94.608,128.541 93.801 C 127.448 92.321,127.333 92.198,127.333 92.499 M250.000 92.698 C 250.000 92.761,249.794 92.805,249.542 92.795 C 248.513 92.754,247.652 92.842,247.737 92.979 C 247.822 93.116,248.421 93.097,249.917 92.908 C 250.770 92.800,251.224 92.539,250.514 92.565 C 250.232 92.575,250.001 92.635,250.000 92.698 M191.667 92.805 C 191.667 93.007,192.681 93.165,192.972 93.008 C 193.100 92.939,192.939 92.879,192.589 92.866 C 192.256 92.853,191.912 92.799,191.825 92.745 C 191.738 92.691,191.667 92.718,191.667 92.805 M242.613 92.785 C 242.562 92.868,242.829 92.954,243.206 92.977 C 243.584 92.999,243.954 93.055,244.030 93.102 C 244.105 93.148,244.167 93.107,244.167 93.010 C 244.167 92.913,244.064 92.833,243.938 92.833 C 243.811 92.833,243.483 92.788,243.208 92.733 C 242.932 92.678,242.665 92.701,242.613 92.785 M141.973 93.598 C 141.939 94.018,141.954 94.388,142.005 94.420 C 142.056 94.451,142.113 94.276,142.133 94.030 C 142.152 93.784,142.201 93.415,142.241 93.208 C 142.281 93.002,142.251 92.833,142.174 92.833 C 142.097 92.833,142.006 93.177,141.973 93.598 M193.631 93.030 C 194.025 93.186,195.963 93.195,196.057 93.042 C 196.100 92.973,195.507 92.917,194.740 92.917 C 193.972 92.917,193.473 92.968,193.631 93.030 M196.401 93.026 C 196.292 93.202,196.805 93.189,197.250 93.005 C 197.519 92.894,197.478 92.869,197.036 92.876 C 196.735 92.881,196.449 92.948,196.401 93.026 M244.431 93.022 C 244.480 93.102,244.828 93.167,245.204 93.167 C 245.581 93.167,245.850 93.128,245.803 93.081 C 245.651 92.929,244.338 92.873,244.431 93.022 M246.667 93.000 L 245.917 93.117 246.615 93.142 C 246.999 93.155,247.360 93.092,247.417 93.000 C 247.473 92.908,247.496 92.845,247.468 92.858 C 247.440 92.872,247.079 92.936,246.667 93.000 M124.099 93.375 C 124.274 93.581,124.567 93.916,124.750 94.121 C 125.438 94.887,125.667 95.169,125.667 95.251 C 125.667 95.331,126.313 96.101,126.804 96.607 C 126.925 96.731,126.962 96.834,126.887 96.836 C 126.812 96.837,126.827 96.894,126.921 96.961 C 127.016 97.028,127.651 97.871,128.333 98.833 C 129.016 99.796,129.623 100.621,129.682 100.667 C 129.742 100.712,130.144 101.406,130.577 102.208 C 131.010 103.010,131.428 103.667,131.507 103.667 C 131.748 103.667,128.678 98.592,128.179 98.167 C 128.125 98.121,127.748 97.635,127.341 97.088 C 126.933 96.540,126.505 95.978,126.390 95.838 C 126.275 95.698,125.949 95.283,125.667 94.917 C 124.747 93.724,124.094 93.000,123.936 93.000 C 123.851 93.000,123.925 93.169,124.099 93.375 M141.819 95.375 C 141.812 95.490,141.787 95.752,141.764 95.958 C 141.741 96.165,141.777 96.333,141.843 96.333 C 141.909 96.333,141.994 96.071,142.032 95.750 C 142.069 95.429,142.040 95.167,141.967 95.167 C 141.893 95.167,141.827 95.260,141.819 95.375 M141.415 97.912 C 141.208 98.767,141.150 99.265,141.262 99.222 C 141.363 99.184,141.444 99.054,141.444 98.933 C 141.444 98.812,141.543 98.251,141.663 97.686 C 141.988 96.152,141.800 96.324,141.415 97.912 M77.014 97.081 C 77.052 97.125,77.271 97.390,77.500 97.670 C 78.161 98.476,81.167 101.516,81.165 101.376 C 81.165 101.307,80.487 100.537,79.660 99.667 C 78.833 98.796,77.952 97.840,77.704 97.542 C 77.455 97.244,77.183 97.000,77.098 97.000 C 77.014 97.000,76.976 97.036,77.014 97.081 M131.671 98.380 C 131.811 98.492,132.331 99.145,132.828 99.832 C 133.899 101.315,133.798 101.194,135.683 103.278 C 136.331 103.995,137.317 104.673,137.686 104.656 C 137.813 104.650,137.747 104.577,137.540 104.494 C 137.059 104.301,136.840 104.117,135.782 103.019 C 135.306 102.526,134.748 101.948,134.542 101.735 C 134.335 101.523,134.167 101.308,134.167 101.258 C 134.167 101.208,134.035 101.022,133.875 100.845 C 133.554 100.492,133.558 100.496,132.536 99.125 C 132.144 98.598,131.731 98.169,131.620 98.172 C 131.487 98.175,131.504 98.247,131.671 98.380 M140.503 101.204 C 140.294 101.779,139.945 102.574,139.725 102.970 C 139.506 103.366,139.408 103.640,139.508 103.578 C 139.819 103.386,141.121 100.399,140.963 100.241 C 140.918 100.196,140.711 100.629,140.503 101.204 M82.100 102.399 C 82.549 102.893,82.978 103.305,83.053 103.315 C 83.128 103.325,83.430 103.577,83.725 103.875 C 84.675 104.835,88.421 107.833,88.671 107.833 C 88.760 107.833,88.833 107.921,88.833 108.028 C 88.833 108.135,88.886 108.169,88.951 108.104 C 89.067 107.988,88.634 107.567,87.730 106.917 C 87.475 106.733,86.822 106.208,86.278 105.750 C 85.734 105.292,85.093 104.767,84.854 104.583 C 84.283 104.147,82.743 102.727,82.096 102.042 C 81.230 101.123,81.233 101.445,82.100 102.399 M131.500 103.857 C 131.500 103.910,131.714 104.357,131.975 104.852 C 132.236 105.346,132.500 105.956,132.562 106.208 C 132.623 106.460,132.742 106.667,132.827 106.667 C 133.021 106.667,132.071 104.336,131.743 104.006 C 131.609 103.872,131.500 103.805,131.500 103.857 M138.970 104.051 C 138.849 104.171,138.608 104.322,138.434 104.388 C 138.261 104.454,138.167 104.556,138.226 104.615 C 138.371 104.760,139.127 104.344,139.236 104.060 C 139.345 103.775,139.253 103.771,138.970 104.051 M133.050 107.619 C 133.048 107.783,133.099 107.992,133.165 108.083 C 133.460 108.496,133.356 110.347,132.996 111.091 C 132.690 111.724,130.720 113.333,130.252 113.333 C 130.213 113.333,129.810 113.552,129.355 113.820 C 128.901 114.088,128.485 114.263,128.431 114.209 C 128.377 114.155,128.333 114.204,128.333 114.317 C 128.333 114.574,128.910 114.412,129.519 113.983 C 129.758 113.814,130.002 113.724,130.060 113.783 C 130.119 113.841,130.167 113.810,130.167 113.713 C 130.167 113.616,130.354 113.489,130.583 113.432 C 130.813 113.374,131.000 113.253,131.000 113.163 C 131.000 113.074,131.073 113.000,131.162 113.000 C 132.395 113.000,133.559 111.056,133.468 109.149 C 133.408 107.896,133.067 106.646,133.050 107.619 M89.167 108.154 C 89.167 108.257,89.354 108.426,89.583 108.530 C 89.813 108.635,90.000 108.783,90.000 108.860 C 90.000 108.937,90.101 109.000,90.224 109.000 C 90.347 109.000,90.584 109.150,90.750 109.333 C 90.916 109.517,91.120 109.667,91.204 109.667 C 91.287 109.667,91.594 109.836,91.886 110.042 C 92.516 110.488,92.755 110.633,94.131 111.409 C 95.280 112.057,95.333 112.076,95.333 111.833 C 95.333 111.742,95.183 111.667,95.000 111.667 C 94.817 111.667,94.667 111.609,94.667 111.539 C 94.667 111.469,94.292 111.234,93.833 111.016 C 93.375 110.799,93.000 110.556,93.000 110.477 C 93.000 110.398,92.913 110.333,92.807 110.333 C 92.701 110.333,92.383 110.162,92.099 109.953 C 91.815 109.743,91.396 109.484,91.167 109.376 C 90.938 109.269,90.394 108.908,89.958 108.574 C 89.523 108.241,89.167 108.052,89.167 108.154 M95.557 112.123 C 95.657 112.285,97.402 113.167,98.750 113.736 C 99.117 113.891,99.623 114.131,99.875 114.268 C 100.127 114.406,100.333 114.483,100.333 114.438 C 100.333 114.394,100.798 114.540,101.365 114.762 C 102.554 115.229,102.500 115.217,102.500 115.000 C 102.500 114.908,102.369 114.833,102.208 114.832 C 102.048 114.831,101.522 114.646,101.039 114.421 C 100.556 114.197,100.106 114.014,100.039 114.015 C 99.865 114.019,98.457 113.403,97.015 112.692 C 95.494 111.942,95.429 111.917,95.557 112.123 M127.583 114.667 C 127.025 115.036,127.098 115.100,127.742 114.807 C 127.976 114.700,128.167 114.550,128.167 114.473 C 128.167 114.284,128.155 114.288,127.583 114.667 M102.790 115.174 C 102.904 115.296,103.091 115.413,103.207 115.433 C 103.322 115.454,103.864 115.589,104.410 115.735 C 104.956 115.881,105.475 116.000,105.563 116.000 C 105.934 116.000,105.472 115.804,104.399 115.507 C 103.767 115.332,103.100 115.135,102.917 115.070 C 102.644 114.973,102.621 114.992,102.790 115.174 M125.523 115.423 C 125.214 115.557,124.802 115.668,124.606 115.669 C 124.205 115.672,123.712 115.935,123.850 116.072 C 123.978 116.200,126.167 115.480,126.167 115.309 C 126.167 115.135,126.202 115.128,125.523 115.423 M105.833 115.987 C 105.833 116.058,106.415 116.247,107.125 116.406 C 107.835 116.565,108.510 116.724,108.625 116.759 C 108.740 116.794,108.833 116.750,108.833 116.661 C 108.833 116.573,108.664 116.500,108.458 116.500 C 108.251 116.500,107.576 116.355,106.958 116.178 C 106.339 116.002,105.833 115.915,105.833 115.987 M122.500 116.250 C 122.179 116.374,121.635 116.480,121.292 116.487 C 120.948 116.494,120.667 116.570,120.667 116.656 C 120.667 116.741,120.873 116.778,121.125 116.737 C 122.164 116.568,123.173 116.290,123.260 116.150 C 123.381 115.954,123.210 115.976,122.500 116.250 M109.167 116.672 C 109.167 116.899,109.415 116.989,109.647 116.845 C 109.803 116.749,109.767 116.688,109.514 116.622 C 109.323 116.572,109.167 116.595,109.167 116.672 M110.068 116.858 C 109.994 116.978,110.021 117.006,110.141 116.933 C 110.247 116.867,110.425 116.870,110.536 116.939 C 110.648 117.008,111.679 117.081,112.828 117.100 L 114.917 117.136 112.959 117.003 C 111.883 116.930,110.819 116.824,110.595 116.768 C 110.359 116.709,110.137 116.747,110.068 116.858 M118.875 116.802 C 118.577 116.831,118.333 116.913,118.333 116.985 C 118.333 117.105,120.028 116.917,120.417 116.754 C 120.585 116.684,119.872 116.706,118.875 116.802 M116.500 117.000 L 114.917 117.103 116.448 117.135 C 117.326 117.153,118.024 117.095,118.083 117.000 C 118.140 116.908,118.163 116.848,118.135 116.865 C 118.107 116.883,117.371 116.943,116.500 117.000 " stroke="none" fill="#fcfcfc" fill-rule="evenodd"></path>
		<path id="path1" d="" stroke="none" fill="#100fcfc" fill-rule="evenodd"></path>
		<path id="path2" d="" stroke="none" fill="#100fcfc" fill-rule="evenodd"></path>
		<path id="path3" d="" stroke="none" fill="#100fcfc" fill-rule="evenodd"></path>
		<path id="path4" d="" stroke="none" fill="#100fcfc" fill-rule="evenodd"></path>
	</g>
</svg>